G04*
G04 #@! TF.GenerationSoftware,Altium Limited,Altium Designer,23.11.1 (41)*
G04*
G04 Layer_Physical_Order=2*
G04 Layer_Color=16711680*
%FSLAX44Y44*%
%MOMM*%
G71*
G04*
G04 #@! TF.SameCoordinates,6762E12D-089E-49D2-B3B2-2041342F93EC*
G04*
G04*
G04 #@! TF.FilePolarity,Positive*
G04*
G01*
G75*
%ADD12C,0.2000*%
%ADD19C,1.2000*%
%ADD20R,1.2000X1.2000*%
%ADD21R,1.2000X1.2000*%
%ADD24C,1.5700*%
%ADD25R,1.5700X1.5700*%
%ADD29C,0.3000*%
%ADD30R,1.3500X1.3500*%
%ADD31C,1.3500*%
%ADD32C,1.5000*%
%ADD33R,1.5000X1.5000*%
%ADD34R,1.3500X1.3500*%
%ADD35C,0.5000*%
G36*
X836000Y40000D02*
X40000D01*
Y777000D01*
X836000D01*
Y40000D01*
D02*
G37*
%LPC*%
G36*
X233741Y719046D02*
X231751D01*
X229914Y718285D01*
X228507Y716878D01*
X227746Y715041D01*
Y713051D01*
X228507Y711214D01*
X229914Y709807D01*
X231751Y709046D01*
X233741D01*
X235578Y709807D01*
X236248Y710477D01*
X312268D01*
X377746Y644999D01*
Y644051D01*
X378507Y642214D01*
X379914Y640807D01*
X381752Y640046D01*
X383741D01*
X385578Y640807D01*
X386985Y642214D01*
X387746Y644051D01*
Y646041D01*
X386985Y647878D01*
X385578Y649285D01*
X383741Y650046D01*
X382793D01*
X316269Y716569D01*
X315112Y717343D01*
X313746Y717615D01*
X236248D01*
X235578Y718285D01*
X233741Y719046D01*
D02*
G37*
G36*
X333836Y647436D02*
X324716D01*
Y638316D01*
X333836D01*
Y647436D01*
D02*
G37*
G36*
X322176D02*
X313056D01*
Y638316D01*
X322176D01*
Y647436D01*
D02*
G37*
G36*
X299409Y647396D02*
X296683D01*
X294051Y646691D01*
X291691Y645328D01*
X289764Y643401D01*
X288401Y641041D01*
X287696Y638409D01*
Y635683D01*
X288401Y633051D01*
X289764Y630691D01*
X291691Y628764D01*
X294051Y627401D01*
X296683Y626696D01*
X299409D01*
X302041Y627401D01*
X304401Y628764D01*
X306328Y630691D01*
X307691Y633051D01*
X308396Y635683D01*
Y638409D01*
X307691Y641041D01*
X306328Y643401D01*
X304401Y645328D01*
X302041Y646691D01*
X299409Y647396D01*
D02*
G37*
G36*
X333836Y635776D02*
X324716D01*
Y626656D01*
X333836D01*
Y635776D01*
D02*
G37*
G36*
X322176D02*
X313056D01*
Y626656D01*
X322176D01*
Y635776D01*
D02*
G37*
G36*
X587741Y657046D02*
X585751D01*
X583914Y656285D01*
X582507Y654878D01*
X581746Y653041D01*
Y652093D01*
X532668Y603015D01*
X503546D01*
Y609446D01*
X483546D01*
Y589446D01*
X503546D01*
Y595877D01*
X534146D01*
X535512Y596149D01*
X536669Y596923D01*
X586793Y647046D01*
X587741D01*
X589578Y647807D01*
X590985Y649214D01*
X591746Y651051D01*
Y653041D01*
X590985Y654878D01*
X589578Y656285D01*
X587741Y657046D01*
D02*
G37*
G36*
X741016Y604975D02*
Y601316D01*
X744675D01*
X744019Y602901D01*
X742601Y604319D01*
X741016Y604975D01*
D02*
G37*
G36*
X738476D02*
X736891Y604319D01*
X735473Y602901D01*
X734817Y601316D01*
X738476D01*
Y604975D01*
D02*
G37*
G36*
X571068Y609486D02*
X571016D01*
Y600716D01*
X579786D01*
Y600768D01*
X579102Y603321D01*
X577780Y605611D01*
X575911Y607480D01*
X573621Y608802D01*
X571068Y609486D01*
D02*
G37*
G36*
X568476D02*
X568424D01*
X565871Y608802D01*
X563581Y607480D01*
X561712Y605611D01*
X560390Y603321D01*
X559706Y600768D01*
Y600716D01*
X568476D01*
Y609486D01*
D02*
G37*
G36*
X579786Y598176D02*
X571016D01*
Y589406D01*
X571068D01*
X573621Y590090D01*
X575911Y591412D01*
X577780Y593281D01*
X579102Y595571D01*
X579786Y598124D01*
Y598176D01*
D02*
G37*
G36*
X568476D02*
X559706D01*
Y598124D01*
X560390Y595571D01*
X561712Y593281D01*
X563581Y591412D01*
X565871Y590090D01*
X568424Y589406D01*
X568476D01*
Y598176D01*
D02*
G37*
G36*
X389741Y589046D02*
X387751D01*
X385914Y588285D01*
X385753Y588124D01*
X234503D01*
X234503Y588124D01*
X232943Y587814D01*
X231620Y586930D01*
X231619Y586930D01*
X227862Y583172D01*
X226978Y581849D01*
X226668Y580289D01*
X226668Y580289D01*
Y547206D01*
X226668Y547206D01*
X226978Y545645D01*
X227862Y544322D01*
X257306Y514878D01*
Y500646D01*
X277306D01*
Y520646D01*
X263074D01*
X234824Y548895D01*
Y578599D01*
X236193Y579968D01*
X385753D01*
X385914Y579807D01*
X387751Y579046D01*
X389741D01*
X391578Y579807D01*
X392985Y581214D01*
X393746Y583051D01*
Y585041D01*
X392985Y586878D01*
X391578Y588285D01*
X389741Y589046D01*
D02*
G37*
G36*
X571063Y584046D02*
X568429D01*
X565886Y583364D01*
X563606Y582048D01*
X561744Y580186D01*
X560428Y577906D01*
X559746Y575363D01*
Y572729D01*
X560428Y570186D01*
X561744Y567906D01*
X563606Y566044D01*
X564558Y565494D01*
X564218Y564224D01*
X530446D01*
X530446Y564224D01*
X528885Y563914D01*
X527562Y563030D01*
X498794Y534262D01*
X497910Y532938D01*
X496584Y532785D01*
X494863Y533246D01*
X492229D01*
X489686Y532565D01*
X489425Y532414D01*
X453269Y568569D01*
X452112Y569343D01*
X450746Y569615D01*
X252248D01*
X251578Y570285D01*
X249741Y571046D01*
X247751D01*
X245914Y570285D01*
X244507Y568878D01*
X243746Y567040D01*
Y565051D01*
X244507Y563214D01*
X245914Y561807D01*
X247751Y561046D01*
X249741D01*
X251578Y561807D01*
X252248Y562477D01*
X449268D01*
X484378Y527367D01*
X484227Y527106D01*
X483546Y524562D01*
Y521930D01*
X484227Y519386D01*
X485544Y517106D01*
X487406Y515244D01*
X489686Y513927D01*
X492229Y513246D01*
X494863D01*
X497406Y513927D01*
X499686Y515244D01*
X501548Y517106D01*
X502864Y519386D01*
X503546Y521930D01*
Y524562D01*
X503085Y526284D01*
X503238Y527610D01*
X504562Y528494D01*
X532135Y556068D01*
X561366D01*
X561852Y554894D01*
X561744Y554786D01*
X560428Y552506D01*
X559746Y549963D01*
Y547329D01*
X560428Y544786D01*
X560578Y544525D01*
X518223Y502169D01*
X517449Y501012D01*
X517178Y499646D01*
Y460168D01*
X504719Y447710D01*
X503546Y448196D01*
Y448363D01*
X502864Y450906D01*
X501548Y453186D01*
X499686Y455048D01*
X497406Y456365D01*
X494863Y457046D01*
X492229D01*
X489686Y456365D01*
X487406Y455048D01*
X485544Y453186D01*
X484227Y450906D01*
X483546Y448363D01*
Y445729D01*
X484227Y443186D01*
X485544Y440906D01*
X487406Y439044D01*
X489686Y437728D01*
X492229Y437046D01*
X493732D01*
X494537Y436064D01*
X494534Y436046D01*
Y432646D01*
X494537Y432628D01*
X493732Y431646D01*
X492229D01*
X489686Y430965D01*
X487406Y429648D01*
X485544Y427786D01*
X484354Y425724D01*
X464593D01*
X462824Y427493D01*
Y512053D01*
X462985Y512214D01*
X463746Y514051D01*
Y516040D01*
X462985Y517878D01*
X461578Y519285D01*
X459741Y520046D01*
X457752D01*
X455914Y519285D01*
X454507Y517878D01*
X453746Y516040D01*
Y514051D01*
X454507Y512214D01*
X454668Y512053D01*
Y425803D01*
X454668Y425803D01*
X454978Y424243D01*
X455862Y422920D01*
X460019Y418762D01*
X460020Y418762D01*
X461343Y417878D01*
X462903Y417568D01*
X462904Y417568D01*
X484354D01*
X485544Y415506D01*
X487406Y413644D01*
X489686Y412327D01*
X492229Y411646D01*
X492396D01*
X492882Y410473D01*
X480023Y397613D01*
X479249Y396455D01*
X478978Y395090D01*
Y362696D01*
X479249Y361330D01*
X480023Y360172D01*
X482726Y357469D01*
X482240Y356296D01*
X470496D01*
Y337796D01*
X488996D01*
Y349540D01*
X490169Y350026D01*
X517178Y323018D01*
Y255666D01*
X517176Y255666D01*
X515066Y254448D01*
X513344Y252726D01*
X512126Y250616D01*
X511496Y248264D01*
Y245828D01*
X512126Y243476D01*
X513344Y241366D01*
X515066Y239644D01*
X517176Y238426D01*
X519528Y237796D01*
X521964D01*
X524316Y238426D01*
X526426Y239644D01*
X528148Y241366D01*
X529366Y243476D01*
X529996Y245828D01*
Y248264D01*
X529366Y250616D01*
X528148Y252726D01*
X526426Y254448D01*
X524316Y255666D01*
X524315Y255666D01*
Y320477D01*
X653243D01*
X653914Y319807D01*
X655751Y319046D01*
X657741D01*
X659578Y319807D01*
X660985Y321214D01*
X661746Y323051D01*
Y325041D01*
X660985Y326878D01*
X659578Y328285D01*
X657741Y329046D01*
X655751D01*
X653914Y328285D01*
X653243Y327615D01*
X522674D01*
X486115Y364174D01*
Y393611D01*
X507069Y414566D01*
X507843Y415724D01*
X508115Y417090D01*
Y426202D01*
X507843Y427568D01*
X507069Y428726D01*
X501671Y434124D01*
Y434568D01*
X523269Y456166D01*
X524043Y457324D01*
X524315Y458690D01*
Y498168D01*
X565625Y539478D01*
X565886Y539328D01*
X568429Y538646D01*
X571063D01*
X573606Y539328D01*
X575886Y540644D01*
X575994Y540752D01*
X577168Y540266D01*
Y536435D01*
X573362Y532630D01*
X571063Y533246D01*
X568429D01*
X565886Y532565D01*
X563606Y531248D01*
X561744Y529386D01*
X560428Y527106D01*
X559746Y524562D01*
Y521930D01*
X560428Y519386D01*
X561744Y517106D01*
X563606Y515244D01*
X565886Y513927D01*
X568429Y513246D01*
X571063D01*
X573606Y513927D01*
X575886Y515244D01*
X577748Y517106D01*
X579064Y519386D01*
X579746Y521930D01*
Y524562D01*
X579130Y526862D01*
X584130Y531862D01*
X584130Y531862D01*
X585014Y533185D01*
X585324Y534746D01*
X585324Y534746D01*
Y553409D01*
X585014Y554970D01*
X584130Y556293D01*
X584130Y556293D01*
X577393Y563030D01*
X576070Y563914D01*
X575078Y564111D01*
X574857Y565450D01*
X575886Y566044D01*
X577748Y567906D01*
X579064Y570186D01*
X579746Y572729D01*
Y575363D01*
X579064Y577906D01*
X577748Y580186D01*
X575886Y582048D01*
X573606Y583364D01*
X571063Y584046D01*
D02*
G37*
G36*
X494863D02*
X492229D01*
X489686Y583364D01*
X487406Y582048D01*
X485544Y580186D01*
X484227Y577906D01*
X483546Y575363D01*
Y572729D01*
X484227Y570186D01*
X485544Y567906D01*
X487406Y566044D01*
X489686Y564728D01*
X492229Y564046D01*
X494863D01*
X497406Y564728D01*
X499686Y566044D01*
X501548Y567906D01*
X502864Y570186D01*
X503546Y572729D01*
Y575363D01*
X502864Y577906D01*
X501548Y580186D01*
X499686Y582048D01*
X497406Y583364D01*
X494863Y584046D01*
D02*
G37*
G36*
X789741Y759046D02*
X787751D01*
X785914Y758285D01*
X784507Y756878D01*
X783746Y755041D01*
Y753051D01*
X784507Y751214D01*
X785177Y750544D01*
Y742524D01*
X608699Y566046D01*
X607752D01*
X605914Y565285D01*
X604507Y563878D01*
X603746Y562041D01*
Y560051D01*
X604507Y558214D01*
X605914Y556807D01*
X607752Y556046D01*
X609741D01*
X611578Y556807D01*
X612985Y558214D01*
X613746Y560051D01*
Y560999D01*
X791269Y738523D01*
X792043Y739680D01*
X792315Y741046D01*
Y750544D01*
X792985Y751214D01*
X793746Y753051D01*
Y755041D01*
X792985Y756878D01*
X791578Y758285D01*
X789741Y759046D01*
D02*
G37*
G36*
X499741Y761046D02*
X497752D01*
X495914Y760285D01*
X494507Y758878D01*
X493746Y757040D01*
Y755051D01*
X494507Y753214D01*
X495177Y752543D01*
Y677118D01*
X469223Y651163D01*
X468449Y650006D01*
X468177Y648640D01*
Y569046D01*
X468449Y567680D01*
X469223Y566523D01*
X484019Y551727D01*
X483546Y549963D01*
Y547329D01*
X484227Y544786D01*
X485544Y542506D01*
X487406Y540644D01*
X489686Y539328D01*
X492229Y538646D01*
X494863D01*
X497406Y539328D01*
X499686Y540644D01*
X501548Y542506D01*
X502864Y544786D01*
X503546Y547329D01*
Y549963D01*
X502864Y552506D01*
X501548Y554786D01*
X499686Y556648D01*
X497406Y557965D01*
X494863Y558646D01*
X492229D01*
X489686Y557965D01*
X488537Y557301D01*
X475315Y570524D01*
Y647162D01*
X501269Y673117D01*
X502043Y674274D01*
X502315Y675640D01*
Y752543D01*
X502985Y753214D01*
X503746Y755051D01*
Y757040D01*
X502985Y758878D01*
X501578Y760285D01*
X499741Y761046D01*
D02*
G37*
G36*
X670964Y556296D02*
X668528D01*
X666176Y555666D01*
X664066Y554448D01*
X662344Y552726D01*
X661126Y550616D01*
X660496Y548264D01*
Y545828D01*
X661126Y543476D01*
X662344Y541366D01*
X664066Y539644D01*
X666176Y538426D01*
X668528Y537796D01*
X670964D01*
X673316Y538426D01*
X675426Y539644D01*
X677148Y541366D01*
X678366Y543476D01*
X678996Y545828D01*
Y548264D01*
X678366Y550616D01*
X677148Y552726D01*
X675426Y554448D01*
X673316Y555666D01*
X670964Y556296D01*
D02*
G37*
G36*
X344828Y520686D02*
X344776D01*
Y511916D01*
X353546D01*
Y511968D01*
X352862Y514521D01*
X351540Y516811D01*
X349671Y518680D01*
X347381Y520002D01*
X344828Y520686D01*
D02*
G37*
G36*
X342236D02*
X342184D01*
X339631Y520002D01*
X337341Y518680D01*
X335472Y516811D01*
X334150Y514521D01*
X333466Y511968D01*
Y511916D01*
X342236D01*
Y520686D01*
D02*
G37*
G36*
X353546Y509376D02*
X344776D01*
Y500606D01*
X344828D01*
X347381Y501290D01*
X349671Y502612D01*
X351540Y504481D01*
X352862Y506771D01*
X353546Y509324D01*
Y509376D01*
D02*
G37*
G36*
X342236D02*
X333466D01*
Y509324D01*
X334090Y506997D01*
X270955Y443862D01*
X268628Y444486D01*
X268576D01*
Y435716D01*
X277346D01*
Y435768D01*
X276723Y438095D01*
X339857Y501230D01*
X342184Y500606D01*
X342236D01*
Y509376D01*
D02*
G37*
G36*
X571063Y507846D02*
X568429D01*
X565886Y507164D01*
X563606Y505848D01*
X561744Y503986D01*
X560428Y501706D01*
X559746Y499162D01*
Y496530D01*
X560428Y493986D01*
X561744Y491706D01*
X563606Y489844D01*
X565886Y488527D01*
X568429Y487846D01*
X571063D01*
X573606Y488527D01*
X575886Y489844D01*
X577748Y491706D01*
X579064Y493986D01*
X579746Y496530D01*
Y499162D01*
X579064Y501706D01*
X577748Y503986D01*
X575886Y505848D01*
X573606Y507164D01*
X571063Y507846D01*
D02*
G37*
G36*
X494863D02*
X492229D01*
X489686Y507164D01*
X487406Y505848D01*
X485544Y503986D01*
X484227Y501706D01*
X483546Y499162D01*
Y496530D01*
X484227Y493986D01*
X485544Y491706D01*
X487406Y489844D01*
X489686Y488527D01*
X492229Y487846D01*
X494863D01*
X497406Y488527D01*
X499686Y489844D01*
X501548Y491706D01*
X502864Y493986D01*
X503546Y496530D01*
Y499162D01*
X502864Y501706D01*
X501548Y503986D01*
X499686Y505848D01*
X497406Y507164D01*
X494863Y507846D01*
D02*
G37*
G36*
X344823Y495246D02*
X342189D01*
X339646Y494565D01*
X337366Y493248D01*
X335504Y491386D01*
X334188Y489106D01*
X333506Y486562D01*
Y483929D01*
X334188Y481386D01*
X335504Y479106D01*
X337366Y477244D01*
X339646Y475928D01*
X342189Y475246D01*
X344823D01*
X347366Y475928D01*
X349646Y477244D01*
X351508Y479106D01*
X352825Y481386D01*
X353506Y483929D01*
Y486562D01*
X352825Y489106D01*
X351508Y491386D01*
X349646Y493248D01*
X347366Y494565D01*
X344823Y495246D01*
D02*
G37*
G36*
X268623D02*
X265989D01*
X263446Y494565D01*
X261166Y493248D01*
X259304Y491386D01*
X257987Y489106D01*
X257306Y486562D01*
Y483929D01*
X257987Y481386D01*
X259304Y479106D01*
X261166Y477244D01*
X263446Y475928D01*
X265989Y475246D01*
X268623D01*
X271166Y475928D01*
X273446Y477244D01*
X275308Y479106D01*
X276625Y481386D01*
X277306Y483929D01*
Y486562D01*
X276625Y489106D01*
X275308Y491386D01*
X273446Y493248D01*
X271166Y494565D01*
X268623Y495246D01*
D02*
G37*
G36*
X571063Y482446D02*
X568429D01*
X565886Y481764D01*
X563606Y480448D01*
X561744Y478586D01*
X560428Y476306D01*
X559746Y473763D01*
Y471129D01*
X560428Y468586D01*
X561744Y466306D01*
X563606Y464444D01*
X565886Y463128D01*
X568429Y462446D01*
X571063D01*
X573606Y463128D01*
X575886Y464444D01*
X577748Y466306D01*
X579064Y468586D01*
X579746Y471129D01*
Y473763D01*
X579064Y476306D01*
X577748Y478586D01*
X575886Y480448D01*
X573606Y481764D01*
X571063Y482446D01*
D02*
G37*
G36*
X494863D02*
X492229D01*
X489686Y481764D01*
X487406Y480448D01*
X485544Y478586D01*
X484227Y476306D01*
X483546Y473763D01*
Y471129D01*
X484227Y468586D01*
X485544Y466306D01*
X487406Y464444D01*
X489686Y463128D01*
X492229Y462446D01*
X494863D01*
X497406Y463128D01*
X499686Y464444D01*
X501548Y466306D01*
X502864Y468586D01*
X503546Y471129D01*
Y473763D01*
X502864Y476306D01*
X501548Y478586D01*
X499686Y480448D01*
X497406Y481764D01*
X494863Y482446D01*
D02*
G37*
G36*
X268623Y469846D02*
X265989D01*
X263446Y469165D01*
X261166Y467848D01*
X259304Y465986D01*
X257987Y463706D01*
X257306Y461162D01*
Y458530D01*
X257987Y455986D01*
X259304Y453706D01*
X261166Y451844D01*
X263446Y450527D01*
X265989Y449846D01*
X268623D01*
X271166Y450527D01*
X273446Y451844D01*
X275308Y453706D01*
X276625Y455986D01*
X277306Y458530D01*
Y461162D01*
X276625Y463706D01*
X275308Y465986D01*
X273446Y467848D01*
X271166Y469165D01*
X268623Y469846D01*
D02*
G37*
G36*
X678996Y466296D02*
X660496D01*
Y447796D01*
X678996D01*
Y466296D01*
D02*
G37*
G36*
X266036Y444486D02*
X265984D01*
X263431Y443802D01*
X261141Y442480D01*
X259272Y440611D01*
X257950Y438321D01*
X257266Y435768D01*
Y435716D01*
X266036D01*
Y444486D01*
D02*
G37*
G36*
X344823Y444446D02*
X342189D01*
X339646Y443764D01*
X337366Y442448D01*
X335504Y440586D01*
X334188Y438306D01*
X333506Y435762D01*
Y433130D01*
X334188Y430586D01*
X335504Y428306D01*
X337366Y426444D01*
X339646Y425127D01*
X342189Y424446D01*
X344823D01*
X347366Y425127D01*
X349646Y426444D01*
X351508Y428306D01*
X352825Y430586D01*
X353506Y433130D01*
Y435762D01*
X352825Y438306D01*
X351508Y440586D01*
X349646Y442448D01*
X347366Y443764D01*
X344823Y444446D01*
D02*
G37*
G36*
X277346Y433176D02*
X268576D01*
Y424406D01*
X268628D01*
X271181Y425090D01*
X273471Y426412D01*
X275340Y428281D01*
X276662Y430571D01*
X277346Y433124D01*
Y433176D01*
D02*
G37*
G36*
X266036D02*
X257266D01*
Y433124D01*
X257950Y430571D01*
X259272Y428281D01*
X261141Y426412D01*
X263431Y425090D01*
X265984Y424406D01*
X266036D01*
Y433176D01*
D02*
G37*
G36*
X571063Y431646D02*
X568429D01*
X565886Y430965D01*
X563606Y429648D01*
X561744Y427786D01*
X560428Y425506D01*
X559746Y422962D01*
Y420330D01*
X560428Y417786D01*
X561744Y415506D01*
X563606Y413644D01*
X565886Y412327D01*
X568429Y411646D01*
X571063D01*
X573606Y412327D01*
X575886Y413644D01*
X577748Y415506D01*
X579064Y417786D01*
X579746Y420330D01*
Y422962D01*
X579064Y425506D01*
X577748Y427786D01*
X575886Y429648D01*
X573606Y430965D01*
X571063Y431646D01*
D02*
G37*
G36*
X744675Y598776D02*
X734817D01*
X735473Y597191D01*
X735668Y596997D01*
Y400095D01*
X735473Y399901D01*
X734817Y398316D01*
X744675D01*
X744019Y399901D01*
X743824Y400095D01*
Y596997D01*
X744019Y597191D01*
X744675Y598776D01*
D02*
G37*
G36*
X344823Y469846D02*
X342189D01*
X339646Y469165D01*
X337366Y467848D01*
X335504Y465986D01*
X334188Y463706D01*
X333506Y461162D01*
Y458530D01*
X334188Y455986D01*
X335504Y453706D01*
X337366Y451844D01*
X339646Y450527D01*
X342189Y449846D01*
X344823D01*
X347366Y450527D01*
X349646Y451844D01*
X351508Y453706D01*
X352825Y455986D01*
X352903Y456277D01*
X395468D01*
X396177Y455568D01*
Y450524D01*
X342268Y396615D01*
X314249D01*
X313578Y397285D01*
X311741Y398046D01*
X309751D01*
X307914Y397285D01*
X306507Y395878D01*
X305746Y394041D01*
Y392051D01*
X306507Y390214D01*
X307914Y388807D01*
X309751Y388046D01*
X311741D01*
X313578Y388807D01*
X314249Y389477D01*
X343746D01*
X345112Y389749D01*
X346269Y390523D01*
X402269Y446523D01*
X403043Y447680D01*
X403315Y449046D01*
Y457046D01*
X403043Y458412D01*
X402269Y459569D01*
X399469Y462369D01*
X398312Y463143D01*
X396946Y463415D01*
X352903D01*
X352825Y463706D01*
X351508Y465986D01*
X349646Y467848D01*
X347366Y469165D01*
X344823Y469846D01*
D02*
G37*
G36*
X744675Y395776D02*
X741016D01*
Y392117D01*
X742601Y392773D01*
X744019Y394191D01*
X744675Y395776D01*
D02*
G37*
G36*
X738476D02*
X734817D01*
X735473Y394191D01*
X736891Y392773D01*
X738476Y392117D01*
Y395776D01*
D02*
G37*
G36*
X395741Y395046D02*
X393751D01*
X391914Y394285D01*
X391244Y393615D01*
X364246D01*
X362880Y393343D01*
X361723Y392569D01*
X331768Y362615D01*
X306248D01*
X305578Y363285D01*
X303741Y364046D01*
X301751D01*
X299914Y363285D01*
X298507Y361878D01*
X297746Y360041D01*
Y358051D01*
X298507Y356214D01*
X299914Y354807D01*
X301751Y354046D01*
X303741D01*
X305578Y354807D01*
X306248Y355477D01*
X333246D01*
X334612Y355749D01*
X335769Y356523D01*
X365724Y386477D01*
X391244D01*
X391914Y385807D01*
X393751Y385046D01*
X395741D01*
X397578Y385807D01*
X398985Y387214D01*
X399746Y389051D01*
Y391041D01*
X398985Y392878D01*
X397578Y394285D01*
X395741Y395046D01*
D02*
G37*
G36*
X424741Y393046D02*
X422752D01*
X420914Y392285D01*
X419507Y390878D01*
X418746Y389040D01*
Y388093D01*
X379419Y348766D01*
X378246Y349252D01*
Y355546D01*
X361246D01*
Y338546D01*
X371490D01*
X371976Y337373D01*
X292218Y257615D01*
X232248D01*
X231578Y258285D01*
X229741Y259046D01*
X227752D01*
X225914Y258285D01*
X224507Y256878D01*
X223746Y255041D01*
Y253051D01*
X224507Y251214D01*
X225914Y249807D01*
X227752Y249046D01*
X229741D01*
X231578Y249807D01*
X232248Y250477D01*
X293696D01*
X295061Y250749D01*
X296219Y251523D01*
X381769Y337073D01*
X382543Y338231D01*
X382815Y339596D01*
Y342068D01*
X423793Y383046D01*
X424741D01*
X426578Y383807D01*
X427985Y385214D01*
X428746Y387051D01*
Y389040D01*
X427985Y390878D01*
X426578Y392285D01*
X424741Y393046D01*
D02*
G37*
G36*
X571016Y356323D02*
Y348316D01*
X579024D01*
X578403Y350632D01*
X577180Y352750D01*
X575450Y354480D01*
X573332Y355703D01*
X571016Y356323D01*
D02*
G37*
G36*
X568476D02*
X566160Y355703D01*
X564042Y354480D01*
X562312Y352750D01*
X561089Y350632D01*
X560469Y348316D01*
X568476D01*
Y356323D01*
D02*
G37*
G36*
X579024Y345776D02*
X571016D01*
Y337769D01*
X573332Y338389D01*
X575450Y339612D01*
X577180Y341342D01*
X578403Y343460D01*
X579024Y345776D01*
D02*
G37*
G36*
X568476D02*
X560469D01*
X561089Y343460D01*
X562312Y341342D01*
X564042Y339612D01*
X566160Y338389D01*
X568476Y337769D01*
Y345776D01*
D02*
G37*
G36*
X238741Y379046D02*
X236751D01*
X234914Y378285D01*
X233507Y376878D01*
X232746Y375041D01*
Y373051D01*
X233507Y371214D01*
X234177Y370544D01*
Y335082D01*
X233746Y334041D01*
Y332051D01*
X234507Y330214D01*
X235914Y328807D01*
X237752Y328046D01*
X239741D01*
X241578Y328807D01*
X242985Y330214D01*
X243746Y332051D01*
Y334041D01*
X242985Y335878D01*
X241578Y337285D01*
X241315Y337394D01*
Y370544D01*
X241985Y371214D01*
X242746Y373051D01*
Y375041D01*
X241985Y376878D01*
X240578Y378285D01*
X238741Y379046D01*
D02*
G37*
G36*
X282741Y309046D02*
X280751D01*
X278914Y308285D01*
X278244Y307615D01*
X176248D01*
X175578Y308285D01*
X173741Y309046D01*
X171751D01*
X169914Y308285D01*
X168507Y306878D01*
X167746Y305041D01*
Y303051D01*
X168507Y301214D01*
X169914Y299807D01*
X171751Y299046D01*
X173741D01*
X175578Y299807D01*
X176248Y300477D01*
X278244D01*
X278914Y299807D01*
X280751Y299046D01*
X282741D01*
X284578Y299807D01*
X285985Y301214D01*
X286746Y303051D01*
Y305041D01*
X285985Y306878D01*
X284578Y308285D01*
X282741Y309046D01*
D02*
G37*
G36*
X370865Y305546D02*
X368627D01*
X366465Y304967D01*
X364527Y303848D01*
X362944Y302265D01*
X361825Y300327D01*
X361246Y298165D01*
Y295927D01*
X361825Y293765D01*
X362944Y291827D01*
X364527Y290244D01*
X366465Y289125D01*
X368627Y288546D01*
X370865D01*
X373027Y289125D01*
X374965Y290244D01*
X376548Y291827D01*
X377667Y293765D01*
X378246Y295927D01*
Y298165D01*
X377667Y300327D01*
X376548Y302265D01*
X374965Y303848D01*
X373027Y304967D01*
X370865Y305546D01*
D02*
G37*
G36*
Y255546D02*
X368627D01*
X366465Y254967D01*
X364527Y253848D01*
X362944Y252265D01*
X361825Y250327D01*
X361246Y248165D01*
Y245927D01*
X361825Y243765D01*
X362944Y241827D01*
X364527Y240244D01*
X366465Y239125D01*
X368627Y238546D01*
X370865D01*
X373027Y239125D01*
X374965Y240244D01*
X376548Y241827D01*
X377667Y243765D01*
X378246Y245927D01*
Y248165D01*
X377667Y250327D01*
X376548Y252265D01*
X374965Y253848D01*
X373027Y254967D01*
X370865Y255546D01*
D02*
G37*
G36*
X328246D02*
X311246D01*
Y238546D01*
X328246D01*
Y255546D01*
D02*
G37*
G36*
X619964Y256296D02*
X617528D01*
X615176Y255666D01*
X613066Y254448D01*
X611344Y252726D01*
X610126Y250616D01*
X609496Y248264D01*
Y245828D01*
X610126Y243476D01*
X611344Y241366D01*
X613066Y239644D01*
X615176Y238426D01*
X617528Y237796D01*
X619964D01*
X622316Y238426D01*
X624426Y239644D01*
X626148Y241366D01*
X627366Y243476D01*
X627996Y245828D01*
Y248264D01*
X627366Y250616D01*
X626148Y252726D01*
X624426Y254448D01*
X622316Y255666D01*
X619964Y256296D01*
D02*
G37*
G36*
X740741Y657046D02*
X738752D01*
X736914Y656285D01*
X735507Y654878D01*
X734746Y653041D01*
Y651051D01*
X735507Y649214D01*
X736914Y647807D01*
X738752Y647046D01*
X739699D01*
X761177Y625568D01*
Y230548D01*
X760507Y229878D01*
X759746Y228041D01*
Y226051D01*
X760507Y224214D01*
X761914Y222807D01*
X763752Y222046D01*
X765741D01*
X767578Y222807D01*
X768985Y224214D01*
X769746Y226051D01*
Y228041D01*
X768985Y229878D01*
X768315Y230548D01*
Y627046D01*
X768043Y628412D01*
X767269Y629569D01*
X744746Y652093D01*
Y653041D01*
X743985Y654878D01*
X742578Y656285D01*
X740741Y657046D01*
D02*
G37*
G36*
X132741Y330046D02*
X130751D01*
X128914Y329285D01*
X127507Y327878D01*
X126746Y326040D01*
Y324051D01*
X127507Y322214D01*
X128914Y320807D01*
X130751Y320046D01*
X131699D01*
X259223Y192523D01*
X260380Y191749D01*
X261746Y191477D01*
X390243D01*
X390914Y190807D01*
X392752Y190046D01*
X394741D01*
X396578Y190807D01*
X397985Y192214D01*
X398746Y194051D01*
Y196041D01*
X397985Y197878D01*
X396578Y199285D01*
X394741Y200046D01*
X392752D01*
X390914Y199285D01*
X390243Y198615D01*
X263224D01*
X136746Y325093D01*
Y326040D01*
X135985Y327878D01*
X134578Y329285D01*
X132741Y330046D01*
D02*
G37*
G36*
X439741Y477046D02*
X437751D01*
X435914Y476285D01*
X434507Y474878D01*
X433746Y473041D01*
Y471051D01*
X433748Y471047D01*
X433449Y470600D01*
X433177Y469234D01*
Y190548D01*
X432507Y189878D01*
X431746Y188041D01*
Y186051D01*
X432507Y184214D01*
X433914Y182807D01*
X435751Y182046D01*
X437741D01*
X439578Y182807D01*
X440985Y184214D01*
X441746Y186051D01*
Y188041D01*
X440985Y189878D01*
X440315Y190548D01*
Y467284D01*
X441578Y467807D01*
X442985Y469214D01*
X443746Y471051D01*
Y473041D01*
X442985Y474878D01*
X441578Y476285D01*
X439741Y477046D01*
D02*
G37*
G36*
X380741Y158046D02*
X378751D01*
X376914Y157285D01*
X376244Y156615D01*
X300782D01*
X299741Y157046D01*
X297751D01*
X295914Y156285D01*
X294507Y154878D01*
X293746Y153041D01*
Y151051D01*
X294507Y149214D01*
X295914Y147807D01*
X297751Y147046D01*
X299741D01*
X301578Y147807D01*
X302985Y149214D01*
X303094Y149477D01*
X376244D01*
X376914Y148807D01*
X378751Y148046D01*
X380741D01*
X382578Y148807D01*
X383985Y150214D01*
X384746Y152051D01*
Y154041D01*
X383985Y155878D01*
X382578Y157285D01*
X380741Y158046D01*
D02*
G37*
G36*
X571063Y457046D02*
X568429D01*
X565886Y456365D01*
X563606Y455048D01*
X561744Y453186D01*
X560428Y450906D01*
X559746Y448363D01*
Y445729D01*
X560428Y443186D01*
X561744Y440906D01*
X563606Y439044D01*
X565886Y437728D01*
X568429Y437046D01*
X571063D01*
X573606Y437728D01*
X573867Y437878D01*
X667178Y344568D01*
Y154218D01*
X667449Y152852D01*
X667746Y152408D01*
Y152051D01*
X668507Y150214D01*
X669914Y148807D01*
X671751Y148046D01*
X673741D01*
X675578Y148807D01*
X676985Y150214D01*
X677746Y152051D01*
Y154041D01*
X676985Y155878D01*
X675578Y157285D01*
X674315Y157808D01*
Y346046D01*
X674043Y347412D01*
X673269Y348569D01*
X578914Y442925D01*
X579064Y443186D01*
X579746Y445729D01*
Y448363D01*
X579064Y450906D01*
X577748Y453186D01*
X575886Y455048D01*
X573606Y456365D01*
X571063Y457046D01*
D02*
G37*
G36*
X456741Y236046D02*
X454752D01*
X452914Y235285D01*
X451507Y233878D01*
X450746Y232041D01*
Y230051D01*
X451507Y228214D01*
X452178Y227544D01*
Y136549D01*
X451507Y135878D01*
X450746Y134040D01*
Y132051D01*
X451507Y130214D01*
X452914Y128807D01*
X454752Y128046D01*
X456741D01*
X458578Y128807D01*
X459985Y130214D01*
X460746Y132051D01*
Y134040D01*
X459985Y135878D01*
X459315Y136549D01*
Y227544D01*
X459985Y228214D01*
X460746Y230051D01*
Y232041D01*
X459985Y233878D01*
X458578Y235285D01*
X456741Y236046D01*
D02*
G37*
G36*
X415741Y237046D02*
X413751D01*
X411914Y236285D01*
X410507Y234878D01*
X409746Y233041D01*
Y231051D01*
X410507Y229214D01*
X411177Y228543D01*
Y58046D01*
X411449Y56680D01*
X412223Y55523D01*
X414223Y53523D01*
X415380Y52749D01*
X416746Y52477D01*
X631244D01*
X631914Y51807D01*
X633751Y51046D01*
X635741D01*
X637578Y51807D01*
X638985Y53214D01*
X639746Y55051D01*
Y57041D01*
X638985Y58878D01*
X637578Y60285D01*
X635741Y61046D01*
X633751D01*
X631914Y60285D01*
X631244Y59615D01*
X418315D01*
Y228543D01*
X418985Y229214D01*
X419746Y231051D01*
Y233041D01*
X418985Y234878D01*
X417578Y236285D01*
X415741Y237046D01*
D02*
G37*
%LPD*%
D12*
X364246Y390046D02*
X394746D01*
X333246Y359046D02*
X364246Y390046D01*
X228746Y254046D02*
X293696D01*
X379246Y339596D01*
Y343546D01*
X423746Y388046D01*
X436746Y187046D02*
Y469234D01*
X438746Y471234D02*
Y472046D01*
X436746Y469234D02*
X438746Y471234D01*
X482546Y395090D02*
X504546Y417090D01*
X482546Y362696D02*
Y395090D01*
X520746Y324496D02*
X521196Y324046D01*
X656746D01*
X261746Y195046D02*
X393746D01*
X131746Y325046D02*
X261746Y195046D01*
X416746Y56046D02*
X634746D01*
X414746Y58046D02*
Y232046D01*
Y58046D02*
X416746Y56046D01*
X172746Y304046D02*
X281746D01*
X482546Y362696D02*
X520746Y324496D01*
Y247046D02*
Y324496D01*
X299558Y152046D02*
X300558Y153046D01*
X379746D01*
X298746Y152046D02*
X299558D01*
X670763Y154218D02*
X671934Y153046D01*
X670746Y154218D02*
Y346046D01*
X671934Y153046D02*
X672746D01*
X670746Y154218D02*
X670763D01*
X569746Y447046D02*
X670746Y346046D01*
X520746Y499646D02*
X569746Y548646D01*
X498102Y436046D02*
X520746Y458690D01*
Y499646D01*
X498102Y432646D02*
Y436046D01*
Y432646D02*
X504546Y426202D01*
Y417090D02*
Y426202D01*
X450746Y566046D02*
X493546Y523246D01*
X248746Y566046D02*
X450746D01*
X492146Y548646D02*
X493546D01*
X471746Y569046D02*
X492146Y548646D01*
X471746Y569046D02*
Y648640D01*
X498746Y675640D02*
Y756046D01*
X471746Y648640D02*
X498746Y675640D01*
X534146Y599446D02*
X586746Y652046D01*
X493546Y599446D02*
X534146D01*
X764746Y227046D02*
Y627046D01*
X739746Y652046D02*
X764746Y627046D01*
X608746Y561046D02*
X788746Y741046D01*
Y754046D01*
X238746Y333046D02*
Y333858D01*
X237746Y334858D02*
Y374046D01*
Y334858D02*
X238746Y333858D01*
X310746Y393046D02*
X343746D01*
X399746Y449046D01*
X302746Y359046D02*
X333246D01*
X343506Y459846D02*
X396946D01*
X399746Y457046D01*
Y449046D02*
Y457046D01*
X455746Y133046D02*
Y231046D01*
X232746Y714046D02*
X313746D01*
X382746Y645046D01*
D19*
X369746Y247046D02*
D03*
Y297046D02*
D03*
D20*
X319746Y247046D02*
D03*
D21*
X369746Y347046D02*
D03*
D24*
X298046Y637046D02*
D03*
D25*
X323446D02*
D03*
D29*
X458746Y425803D02*
Y515046D01*
Y425803D02*
X462903Y421646D01*
X501678Y531378D02*
X530446Y560146D01*
X574510D01*
X581246Y553409D01*
Y534746D02*
Y553409D01*
X569746Y523246D02*
X581246Y534746D01*
X462903Y421646D02*
X493546D01*
X230746Y547206D02*
Y580289D01*
X234503Y584046D02*
X388746D01*
X230746Y580289D02*
X234503Y584046D01*
X230746Y547206D02*
X267306Y510646D01*
X739746Y397046D02*
Y600046D01*
X267306Y434446D02*
X343506Y510646D01*
D30*
X479746Y347046D02*
D03*
D31*
X569746D02*
D03*
X520746Y247046D02*
D03*
X618746D02*
D03*
X669746Y547046D02*
D03*
D32*
X569746Y421646D02*
D03*
Y447046D02*
D03*
Y472446D02*
D03*
Y497846D02*
D03*
Y523246D02*
D03*
Y548646D02*
D03*
Y574046D02*
D03*
Y599446D02*
D03*
X493546Y421646D02*
D03*
Y447046D02*
D03*
Y472446D02*
D03*
Y497846D02*
D03*
Y523246D02*
D03*
Y548646D02*
D03*
Y574046D02*
D03*
X267306Y485246D02*
D03*
Y459846D02*
D03*
Y434446D02*
D03*
X343506Y510646D02*
D03*
Y485246D02*
D03*
Y459846D02*
D03*
Y434446D02*
D03*
D33*
X493546Y599446D02*
D03*
X267306Y510646D02*
D03*
D34*
X669746Y457046D02*
D03*
D35*
X228746Y254046D02*
D03*
X423746Y388046D02*
D03*
X656746Y324046D02*
D03*
X393746Y195046D02*
D03*
X131746Y325046D02*
D03*
X298746Y152046D02*
D03*
X379746Y153046D02*
D03*
X672746D02*
D03*
X458746Y515046D02*
D03*
X388746Y584046D02*
D03*
X739746Y600046D02*
D03*
Y397046D02*
D03*
X498746Y756046D02*
D03*
X586746Y652046D02*
D03*
X739746D02*
D03*
X764746Y227046D02*
D03*
X238746Y333046D02*
D03*
X237746Y374046D02*
D03*
X302746Y359046D02*
D03*
X394746Y390046D02*
D03*
X281746Y304046D02*
D03*
X172746D02*
D03*
X310746Y393046D02*
D03*
X455746Y133046D02*
D03*
Y231046D02*
D03*
X634746Y56046D02*
D03*
X414746Y232046D02*
D03*
X248746Y566046D02*
D03*
X232746Y714046D02*
D03*
X382746Y645046D02*
D03*
X438746Y472046D02*
D03*
X436746Y187046D02*
D03*
X788746Y754046D02*
D03*
X608746Y561046D02*
D03*
M02*
