G04*
G04 #@! TF.GenerationSoftware,Altium Limited,Altium Designer,23.11.1 (41)*
G04*
G04 Layer_Physical_Order=1*
G04 Layer_Color=255*
%FSLAX44Y44*%
%MOMM*%
G71*
G04*
G04 #@! TF.SameCoordinates,6762E12D-089E-49D2-B3B2-2041342F93EC*
G04*
G04*
G04 #@! TF.FilePolarity,Positive*
G04*
G01*
G75*
%ADD12C,0.2000*%
%ADD14R,0.6000X0.5000*%
%ADD15R,1.6000X1.6000*%
%ADD16R,1.1000X1.6000*%
%ADD19C,1.2000*%
%ADD20R,1.2000X1.2000*%
%ADD21R,1.2000X1.2000*%
%ADD24C,1.5700*%
%ADD25R,1.5700X1.5700*%
%ADD29C,0.3000*%
%ADD30R,1.3500X1.3500*%
%ADD31C,1.3500*%
%ADD32C,1.5000*%
%ADD33R,1.5000X1.5000*%
%ADD34R,1.3500X1.3500*%
%ADD35C,0.5000*%
G36*
X836000Y40000D02*
X673315D01*
Y42046D01*
X675246D01*
Y43477D01*
X742746D01*
X744112Y43749D01*
X745269Y44523D01*
X813323Y112577D01*
X814097Y113734D01*
X814369Y115100D01*
Y315620D01*
X818300D01*
Y317051D01*
X824048D01*
X825414Y317323D01*
X826571Y318097D01*
X829801Y321327D01*
X830575Y322484D01*
X830847Y323850D01*
Y447656D01*
X830575Y449021D01*
X829801Y450179D01*
X821043Y458937D01*
X819885Y459711D01*
X819570Y459774D01*
Y464414D01*
X813617D01*
X728461Y549569D01*
X727304Y550343D01*
X725938Y550615D01*
X678366D01*
X678366Y550616D01*
X677148Y552726D01*
X675426Y554448D01*
X673316Y555666D01*
X670964Y556296D01*
X668528D01*
X666176Y555666D01*
X664066Y554448D01*
X662344Y552726D01*
X661126Y550616D01*
X660496Y548264D01*
Y545828D01*
X661126Y543476D01*
X662344Y541366D01*
X664066Y539644D01*
X666176Y538426D01*
X668528Y537796D01*
X670964D01*
X673316Y538426D01*
X675426Y539644D01*
X677148Y541366D01*
X678366Y543476D01*
X678366Y543477D01*
X724460D01*
X808570Y459367D01*
Y453983D01*
X795664D01*
X787383Y462263D01*
X786226Y463037D01*
X784860Y463309D01*
X783494Y463037D01*
X783413Y462983D01*
X712301D01*
X710935Y462711D01*
X709778Y461937D01*
X673055Y425215D01*
X579143D01*
X579064Y425506D01*
X577748Y427786D01*
X575886Y429648D01*
X573606Y430965D01*
X571063Y431646D01*
X568429D01*
X565886Y430965D01*
X563606Y429648D01*
X561744Y427786D01*
X560428Y425506D01*
X559746Y422962D01*
Y420330D01*
X560428Y417786D01*
X561744Y415506D01*
X563606Y413644D01*
X565886Y412327D01*
X568429Y411646D01*
X571063D01*
X573606Y412327D01*
X575886Y413644D01*
X577748Y415506D01*
X579064Y417786D01*
X579143Y418077D01*
X674533D01*
X675899Y418349D01*
X677056Y419123D01*
X713779Y455845D01*
X783708D01*
X791663Y447891D01*
X792820Y447117D01*
X794186Y446845D01*
X808570D01*
Y445414D01*
X819570D01*
Y448658D01*
X820743Y449144D01*
X823709Y446178D01*
Y325328D01*
X822570Y324189D01*
X818300D01*
Y334620D01*
X807300D01*
Y333189D01*
X775320D01*
X773954Y332917D01*
X772797Y332143D01*
X609268Y168615D01*
X444224D01*
X440315Y172524D01*
Y183543D01*
X440985Y184214D01*
X441746Y186051D01*
Y188041D01*
X440985Y189878D01*
X440656Y190207D01*
X441182Y191477D01*
X596746D01*
X598112Y191749D01*
X599269Y192523D01*
X660269Y253523D01*
X661043Y254680D01*
X661315Y256046D01*
Y321046D01*
X661185Y321697D01*
X661746Y323051D01*
Y325041D01*
X660985Y326878D01*
X659578Y328285D01*
X657741Y329046D01*
X655751D01*
X653914Y328285D01*
X652507Y326878D01*
X651746Y325041D01*
Y323051D01*
X652507Y321214D01*
X653914Y319807D01*
X653999Y319772D01*
X654051Y319694D01*
X654177Y319568D01*
Y257524D01*
X595268Y198615D01*
X397248D01*
X396578Y199285D01*
X394741Y200046D01*
X392752D01*
X390914Y199285D01*
X389507Y197878D01*
X388746Y196041D01*
Y194051D01*
X389507Y192214D01*
X390914Y190807D01*
X392752Y190046D01*
X394741D01*
X396578Y190807D01*
X397248Y191477D01*
X432310D01*
X432836Y190207D01*
X432507Y189878D01*
X431746Y188041D01*
Y186051D01*
X432507Y184214D01*
X433177Y183543D01*
Y171046D01*
X433449Y169680D01*
X434223Y168523D01*
X440223Y162523D01*
X441380Y161749D01*
X442746Y161477D01*
X610746D01*
X612112Y161749D01*
X613269Y162523D01*
X776798Y326051D01*
X807300D01*
Y319465D01*
X807231Y319120D01*
Y116578D01*
X741268Y50615D01*
X675246D01*
Y61046D01*
X664246D01*
Y59615D01*
X638248D01*
X637578Y60285D01*
X635741Y61046D01*
X633751D01*
X631914Y60285D01*
X630507Y58878D01*
X629746Y57041D01*
Y55051D01*
X630507Y53214D01*
X631914Y51807D01*
X633751Y51046D01*
X635741D01*
X637578Y51807D01*
X638248Y52477D01*
X664246D01*
Y42046D01*
X666177D01*
Y40000D01*
X349839D01*
X273315Y116524D01*
Y137271D01*
X274488Y137757D01*
X367723Y44523D01*
X368880Y43749D01*
X370246Y43477D01*
X464246D01*
Y42046D01*
X475246D01*
Y51046D01*
Y55999D01*
X557687Y138440D01*
X679709D01*
X681075Y138712D01*
X682232Y139486D01*
X764793Y222046D01*
X765741D01*
X767578Y222807D01*
X768985Y224214D01*
X769746Y226051D01*
Y228041D01*
X768985Y229878D01*
X767578Y231285D01*
X765741Y232046D01*
X763752D01*
X761914Y231285D01*
X760507Y229878D01*
X759746Y228041D01*
Y227093D01*
X678231Y145578D01*
X556209D01*
X554843Y145306D01*
X553686Y144532D01*
X470199Y61046D01*
X464246D01*
Y50615D01*
X371724D01*
X275246Y147093D01*
Y152477D01*
X293268D01*
X293746Y151999D01*
Y151051D01*
X294507Y149214D01*
X295914Y147807D01*
X297751Y147046D01*
X299741D01*
X301578Y147807D01*
X302985Y149214D01*
X303746Y151051D01*
Y153041D01*
X302985Y154878D01*
X301578Y156285D01*
X299741Y157046D01*
X298793D01*
X297269Y158569D01*
X296112Y159343D01*
X294746Y159614D01*
X275246D01*
Y161046D01*
X264246D01*
Y157802D01*
X263073Y157316D01*
X175315Y245074D01*
Y245546D01*
X175246Y245891D01*
Y252477D01*
X196325D01*
X197280Y251523D01*
X198438Y250749D01*
X199803Y250477D01*
X225243D01*
X225914Y249807D01*
X227752Y249046D01*
X229741D01*
X231578Y249807D01*
X232985Y251214D01*
X233746Y253051D01*
Y255041D01*
X232985Y256878D01*
X231578Y258285D01*
X229741Y259046D01*
X227752D01*
X225914Y258285D01*
X225243Y257615D01*
X201281D01*
X200326Y258569D01*
X199169Y259343D01*
X197803Y259615D01*
X175246D01*
Y261046D01*
X164246D01*
Y257802D01*
X163073Y257316D01*
X73315Y347074D01*
Y442046D01*
X75246D01*
Y452477D01*
X138746D01*
X140112Y452749D01*
X141269Y453523D01*
X248793Y561046D01*
X249741D01*
X251578Y561807D01*
X252985Y563214D01*
X253746Y565051D01*
Y567040D01*
X252985Y568878D01*
X251578Y570285D01*
X249741Y571046D01*
X247751D01*
X245914Y570285D01*
X244507Y568878D01*
X243746Y567040D01*
Y566093D01*
X137268Y459614D01*
X75246D01*
Y461046D01*
X64246D01*
Y450615D01*
X54315D01*
Y475568D01*
X271269Y692523D01*
X272043Y693680D01*
X272315Y695046D01*
Y733046D01*
X275246D01*
Y734477D01*
X460246D01*
X461612Y734749D01*
X462769Y735523D01*
X469293Y742046D01*
X475246D01*
Y743227D01*
X764246D01*
Y741546D01*
X775246D01*
Y751051D01*
X784669D01*
X785914Y749807D01*
X787751Y749046D01*
X789741D01*
X791578Y749807D01*
X792985Y751214D01*
X793746Y753051D01*
Y755041D01*
X792985Y756878D01*
X791578Y758285D01*
X789741Y759046D01*
X787751D01*
X785914Y758285D01*
X785817Y758189D01*
X775246D01*
Y760546D01*
X764246D01*
Y750365D01*
X501414D01*
X501162Y751635D01*
X501578Y751807D01*
X502985Y753214D01*
X503746Y755051D01*
Y757040D01*
X502985Y758878D01*
X501578Y760285D01*
X499741Y761046D01*
X497752D01*
X495914Y760285D01*
X495243Y759615D01*
X475246D01*
Y761046D01*
X464246D01*
Y747093D01*
X458768Y741615D01*
X275246D01*
Y752046D01*
X264246D01*
Y750615D01*
X235918D01*
X234552Y750343D01*
X233394Y749569D01*
X230223Y746398D01*
X229449Y745240D01*
X229177Y743874D01*
Y717549D01*
X228507Y716878D01*
X227746Y715041D01*
Y713051D01*
X228507Y711214D01*
X229914Y709807D01*
X231751Y709046D01*
X233741D01*
X235578Y709807D01*
X236985Y711214D01*
X237746Y713051D01*
Y715041D01*
X236985Y716878D01*
X236315Y717549D01*
Y742396D01*
X237396Y743477D01*
X264246D01*
Y733046D01*
X265177D01*
Y696524D01*
X48223Y479569D01*
X47449Y478412D01*
X47178Y477046D01*
Y449046D01*
X47449Y447680D01*
X48223Y446523D01*
X50223Y444523D01*
X51380Y443749D01*
X52746Y443477D01*
X64246D01*
Y442046D01*
X66177D01*
Y345596D01*
X66449Y344231D01*
X67223Y343073D01*
X162773Y247523D01*
X163931Y246749D01*
X164246Y246686D01*
Y242046D01*
X168573D01*
X169223Y241073D01*
X262773Y147523D01*
X263931Y146749D01*
X264246Y146686D01*
Y142046D01*
X266177D01*
Y115046D01*
X266449Y113680D01*
X267223Y112523D01*
X338572Y41173D01*
X338086Y40000D01*
X40000D01*
Y777000D01*
X836000D01*
Y40000D01*
D02*
G37*
%LPC*%
G36*
X558746Y670124D02*
X558746Y670124D01*
X352446D01*
X352446Y670124D01*
X350885Y669814D01*
X349562Y668930D01*
X328028Y647396D01*
X313096D01*
Y626696D01*
X328028D01*
X355368Y599357D01*
Y528275D01*
X347122Y520030D01*
X344823Y520646D01*
X342189D01*
X339646Y519964D01*
X337366Y518648D01*
X335504Y516786D01*
X334188Y514506D01*
X333506Y511963D01*
Y509329D01*
X334188Y506786D01*
X335504Y504506D01*
X337366Y502644D01*
X339646Y501328D01*
X342189Y500646D01*
X344823D01*
X347366Y501328D01*
X349646Y502644D01*
X351508Y504506D01*
X352825Y506786D01*
X353506Y509329D01*
Y511963D01*
X352890Y514262D01*
X362330Y523702D01*
X362330Y523702D01*
X363214Y525025D01*
X363524Y526586D01*
Y601046D01*
X363214Y602607D01*
X362330Y603930D01*
X362330Y603930D01*
X333796Y632464D01*
Y641628D01*
X354135Y661968D01*
X557057D01*
X565668Y653357D01*
Y608638D01*
X563606Y607448D01*
X561744Y605586D01*
X560428Y603306D01*
X559746Y600762D01*
Y598130D01*
X560428Y595586D01*
X561744Y593306D01*
X563606Y591444D01*
X565886Y590127D01*
X568429Y589446D01*
X571063D01*
X573606Y590127D01*
X575886Y591444D01*
X577748Y593306D01*
X579064Y595586D01*
X579086Y595668D01*
X737251D01*
X738752Y595046D01*
X740741D01*
X742578Y595807D01*
X743985Y597214D01*
X744746Y599051D01*
Y601041D01*
X743985Y602878D01*
X742578Y604285D01*
X740741Y605046D01*
X738752D01*
X736914Y604285D01*
X736453Y603824D01*
X578765D01*
X577748Y605586D01*
X575886Y607448D01*
X573824Y608638D01*
Y655046D01*
X573824Y655046D01*
X573514Y656607D01*
X572630Y657930D01*
X561630Y668930D01*
X560307Y669814D01*
X560048Y669865D01*
X558746Y670124D01*
D02*
G37*
G36*
X740741Y657046D02*
X738752D01*
X736914Y656285D01*
X736244Y655615D01*
X590248D01*
X589578Y656285D01*
X587741Y657046D01*
X585751D01*
X583914Y656285D01*
X582507Y654878D01*
X581746Y653041D01*
Y651051D01*
X582507Y649214D01*
X583914Y647807D01*
X585751Y647046D01*
X587741D01*
X589578Y647807D01*
X590248Y648477D01*
X736244D01*
X736914Y647807D01*
X738752Y647046D01*
X740741D01*
X742578Y647807D01*
X743985Y649214D01*
X744746Y651051D01*
Y653041D01*
X743985Y654878D01*
X742578Y656285D01*
X740741Y657046D01*
D02*
G37*
G36*
X299414Y647436D02*
X299316D01*
Y638316D01*
X308436D01*
Y638414D01*
X307728Y641056D01*
X306360Y643426D01*
X304426Y645360D01*
X302056Y646728D01*
X299414Y647436D01*
D02*
G37*
G36*
X296776D02*
X296678D01*
X294036Y646728D01*
X291666Y645360D01*
X289732Y643426D01*
X288364Y641056D01*
X287656Y638414D01*
Y638316D01*
X296776D01*
Y647436D01*
D02*
G37*
G36*
X308436Y635776D02*
X299316D01*
Y626656D01*
X299414D01*
X302056Y627364D01*
X304426Y628732D01*
X306360Y630666D01*
X307728Y633036D01*
X308436Y635678D01*
Y635776D01*
D02*
G37*
G36*
X296776D02*
X287656D01*
Y635678D01*
X288344Y633111D01*
X264422Y609190D01*
X263538Y607867D01*
X263228Y606306D01*
X263228Y606306D01*
Y520686D01*
X257266D01*
Y511916D01*
X277346D01*
Y520686D01*
X271384D01*
Y604617D01*
X294111Y627344D01*
X296678Y626656D01*
X296776D01*
Y635776D01*
D02*
G37*
G36*
X503546Y609446D02*
X483546D01*
Y589446D01*
X503546D01*
Y609446D01*
D02*
G37*
G36*
X387476Y588975D02*
X385891Y588319D01*
X384473Y586901D01*
X383817Y585316D01*
X387476D01*
Y588975D01*
D02*
G37*
G36*
X568476Y584086D02*
X568424D01*
X565871Y583402D01*
X563581Y582080D01*
X561712Y580211D01*
X560390Y577921D01*
X559706Y575368D01*
Y575316D01*
X568476D01*
Y584086D01*
D02*
G37*
G36*
X383741Y650046D02*
X381752D01*
X379914Y649285D01*
X378507Y647878D01*
X377746Y646041D01*
Y644051D01*
X378507Y642214D01*
X379914Y640807D01*
X381752Y640046D01*
X382699D01*
X451223Y571523D01*
X452380Y570749D01*
X453746Y570477D01*
X484150D01*
X484227Y570186D01*
X485544Y567906D01*
X487406Y566044D01*
X489686Y564728D01*
X492229Y564046D01*
X494863D01*
X497406Y564728D01*
X499686Y566044D01*
X501548Y567906D01*
X502864Y570186D01*
X503546Y572729D01*
Y575363D01*
X502864Y577906D01*
X501548Y580186D01*
X499686Y582048D01*
X497406Y583364D01*
X494863Y584046D01*
X492229D01*
X489686Y583364D01*
X487406Y582048D01*
X485544Y580186D01*
X484227Y577906D01*
X484150Y577615D01*
X455224D01*
X387746Y645093D01*
Y646041D01*
X386985Y647878D01*
X385578Y649285D01*
X383741Y650046D01*
D02*
G37*
G36*
X568476Y572776D02*
X559706D01*
Y572724D01*
X560390Y570171D01*
X561712Y567881D01*
X563581Y566012D01*
X565871Y564690D01*
X568424Y564006D01*
X568476D01*
Y572776D01*
D02*
G37*
G36*
X571063Y558646D02*
X568429D01*
X565886Y557965D01*
X563606Y556648D01*
X561744Y554786D01*
X560428Y552506D01*
X559746Y549963D01*
Y547329D01*
X560428Y544786D01*
X561744Y542506D01*
X563606Y540644D01*
X565886Y539328D01*
X568429Y538646D01*
X571063D01*
X573606Y539328D01*
X575886Y540644D01*
X577748Y542506D01*
X579064Y544786D01*
X579746Y547329D01*
Y549963D01*
X579064Y552506D01*
X577748Y554786D01*
X575886Y556648D01*
X573606Y557965D01*
X571063Y558646D01*
D02*
G37*
G36*
X494863D02*
X492229D01*
X489686Y557965D01*
X487406Y556648D01*
X485544Y554786D01*
X484227Y552506D01*
X483546Y549963D01*
Y547329D01*
X484227Y544786D01*
X485544Y542506D01*
X487406Y540644D01*
X489686Y539328D01*
X492229Y538646D01*
X494863D01*
X497406Y539328D01*
X499686Y540644D01*
X501548Y542506D01*
X502864Y544786D01*
X503546Y547329D01*
Y549963D01*
X502864Y552506D01*
X501548Y554786D01*
X499686Y556648D01*
X497406Y557965D01*
X494863Y558646D01*
D02*
G37*
G36*
X571068Y533286D02*
X571016D01*
Y524516D01*
X579786D01*
Y524568D01*
X579102Y527121D01*
X577780Y529411D01*
X575911Y531280D01*
X573621Y532602D01*
X571068Y533286D01*
D02*
G37*
G36*
X568476D02*
X568424D01*
X565871Y532602D01*
X563581Y531280D01*
X561712Y529411D01*
X560390Y527121D01*
X559706Y524568D01*
Y524516D01*
X568476D01*
Y533286D01*
D02*
G37*
G36*
X460016Y519975D02*
Y516316D01*
X463675D01*
X463019Y517901D01*
X461601Y519319D01*
X460016Y519975D01*
D02*
G37*
G36*
X494863Y533246D02*
X492229D01*
X489686Y532565D01*
X487406Y531248D01*
X485544Y529386D01*
X484227Y527106D01*
X483546Y524562D01*
Y521930D01*
X484227Y519386D01*
X485544Y517106D01*
X487406Y515244D01*
X489686Y513927D01*
X492229Y513246D01*
X494863D01*
X497406Y513927D01*
X499686Y515244D01*
X501548Y517106D01*
X502864Y519386D01*
X503546Y521930D01*
Y524562D01*
X502864Y527106D01*
X501548Y529386D01*
X499686Y531248D01*
X497406Y532565D01*
X494863Y533246D01*
D02*
G37*
G36*
X579786Y521976D02*
X571016D01*
Y513206D01*
X571068D01*
X573621Y513890D01*
X575911Y515212D01*
X577780Y517081D01*
X579102Y519371D01*
X579786Y521924D01*
Y521976D01*
D02*
G37*
G36*
X568476D02*
X559706D01*
Y521924D01*
X560390Y519371D01*
X561712Y517081D01*
X563581Y515212D01*
X565871Y513890D01*
X568424Y513206D01*
X568476D01*
Y521976D01*
D02*
G37*
G36*
X463675Y513776D02*
X460016D01*
Y510117D01*
X461601Y510773D01*
X463019Y512191D01*
X463675Y513776D01*
D02*
G37*
G36*
X390016Y588975D02*
Y584046D01*
X388746D01*
Y582776D01*
X383817D01*
X384473Y581191D01*
X385891Y579773D01*
X387743Y579006D01*
X388018D01*
X454219Y512806D01*
X454473Y512191D01*
X455891Y510773D01*
X457476Y510117D01*
Y515046D01*
Y521084D01*
X393786Y584774D01*
Y585048D01*
X393019Y586901D01*
X391601Y588319D01*
X390016Y588975D01*
D02*
G37*
G36*
X277346Y509376D02*
X268576D01*
Y500606D01*
X277346D01*
Y509376D01*
D02*
G37*
G36*
X266036D02*
X257266D01*
Y500606D01*
X266036D01*
Y509376D01*
D02*
G37*
G36*
X571063Y507846D02*
X568429D01*
X565886Y507164D01*
X563606Y505848D01*
X561744Y503986D01*
X560428Y501706D01*
X559746Y499162D01*
Y496530D01*
X560428Y493986D01*
X561744Y491706D01*
X563606Y489844D01*
X565886Y488527D01*
X568429Y487846D01*
X571063D01*
X573606Y488527D01*
X575886Y489844D01*
X577748Y491706D01*
X579064Y493986D01*
X579746Y496530D01*
Y499162D01*
X579064Y501706D01*
X577748Y503986D01*
X575886Y505848D01*
X573606Y507164D01*
X571063Y507846D01*
D02*
G37*
G36*
X494863D02*
X492229D01*
X489686Y507164D01*
X487406Y505848D01*
X485544Y503986D01*
X484227Y501706D01*
X484150Y501415D01*
X437546D01*
X436180Y501143D01*
X435023Y500369D01*
X412223Y477569D01*
X411449Y476412D01*
X411177Y475046D01*
Y235548D01*
X410507Y234878D01*
X409746Y233041D01*
Y231051D01*
X410507Y229214D01*
X411914Y227807D01*
X413751Y227046D01*
X415741D01*
X417578Y227807D01*
X418985Y229214D01*
X419746Y231051D01*
Y233041D01*
X418985Y234878D01*
X418315Y235548D01*
Y384774D01*
X419210Y385104D01*
X419585Y385136D01*
X420914Y383807D01*
X422752Y383046D01*
X424741D01*
X426578Y383807D01*
X427985Y385214D01*
X428746Y387051D01*
Y387999D01*
X483190Y442443D01*
X484777Y442234D01*
X485544Y440906D01*
X487406Y439044D01*
X489686Y437728D01*
X492229Y437046D01*
X494863D01*
X497406Y437728D01*
X499686Y439044D01*
X501548Y440906D01*
X502864Y443186D01*
X503546Y445729D01*
Y448363D01*
X502864Y450906D01*
X501548Y453186D01*
X499686Y455048D01*
X497406Y456365D01*
X494863Y457046D01*
X492229D01*
X489686Y456365D01*
X487406Y455048D01*
X485544Y453186D01*
X484227Y450906D01*
X484150Y450615D01*
X482746D01*
X481380Y450343D01*
X480223Y449569D01*
X423699Y393046D01*
X422752D01*
X420914Y392285D01*
X419585Y390956D01*
X419210Y390988D01*
X418315Y391318D01*
Y473568D01*
X439024Y494277D01*
X484150D01*
X484227Y493986D01*
X485544Y491706D01*
X487406Y489844D01*
X489686Y488527D01*
X492229Y487846D01*
X494863D01*
X497406Y488527D01*
X499686Y489844D01*
X501548Y491706D01*
X502864Y493986D01*
X503546Y496530D01*
Y499162D01*
X502864Y501706D01*
X501548Y503986D01*
X499686Y505848D01*
X497406Y507164D01*
X494863Y507846D01*
D02*
G37*
G36*
X609741Y566046D02*
X607752D01*
X605914Y565285D01*
X604507Y563878D01*
X603746Y562041D01*
Y560051D01*
X604507Y558214D01*
X605177Y557543D01*
Y512924D01*
X573867Y481614D01*
X573606Y481764D01*
X571063Y482446D01*
X568429D01*
X565886Y481764D01*
X563606Y480448D01*
X561744Y478586D01*
X560428Y476306D01*
X559746Y473763D01*
Y471129D01*
X560428Y468586D01*
X561744Y466306D01*
X563606Y464444D01*
X565886Y463128D01*
X568429Y462446D01*
X571063D01*
X573606Y463128D01*
X575886Y464444D01*
X577748Y466306D01*
X579064Y468586D01*
X579746Y471129D01*
Y473763D01*
X579064Y476306D01*
X578914Y476567D01*
X611269Y508923D01*
X612043Y510080D01*
X612315Y511446D01*
Y557543D01*
X612985Y558214D01*
X613746Y560051D01*
Y562041D01*
X612985Y563878D01*
X611578Y565285D01*
X609741Y566046D01*
D02*
G37*
G36*
X494863Y482446D02*
X492229D01*
X489686Y481764D01*
X487406Y480448D01*
X485544Y478586D01*
X484227Y476306D01*
X484096Y475815D01*
X442048D01*
X441578Y476285D01*
X439741Y477046D01*
X437751D01*
X435914Y476285D01*
X434507Y474878D01*
X433746Y473041D01*
Y471051D01*
X434507Y469214D01*
X435914Y467807D01*
X437751Y467046D01*
X439741D01*
X441578Y467807D01*
X442449Y468677D01*
X484203D01*
X484227Y468586D01*
X485544Y466306D01*
X487406Y464444D01*
X489686Y463128D01*
X492229Y462446D01*
X494863D01*
X497406Y463128D01*
X499686Y464444D01*
X501548Y466306D01*
X502864Y468586D01*
X503546Y471129D01*
Y473763D01*
X502864Y476306D01*
X501548Y478586D01*
X499686Y480448D01*
X497406Y481764D01*
X494863Y482446D01*
D02*
G37*
G36*
X679036Y466336D02*
X671016D01*
Y458316D01*
X679036D01*
Y466336D01*
D02*
G37*
G36*
X571068Y584086D02*
X571016D01*
Y574046D01*
Y564006D01*
X571068D01*
X573621Y564690D01*
X575911Y566012D01*
X577780Y567881D01*
X578985Y569968D01*
X617668D01*
Y505046D01*
X617668Y505046D01*
X617978Y503485D01*
X618862Y502162D01*
X660456Y460568D01*
Y458316D01*
X668476D01*
Y466336D01*
X666224D01*
X625824Y506735D01*
Y572289D01*
X625824Y572289D01*
X625514Y573849D01*
X624630Y575173D01*
X624630Y575173D01*
X622873Y576930D01*
X621549Y577814D01*
X619989Y578124D01*
X619989Y578124D01*
X578985D01*
X577780Y580211D01*
X575911Y582080D01*
X573621Y583402D01*
X571068Y584086D01*
D02*
G37*
G36*
X679036Y455776D02*
X671016D01*
Y447756D01*
X679036D01*
Y455776D01*
D02*
G37*
G36*
X668476D02*
X660456D01*
Y447756D01*
X668476D01*
Y455776D01*
D02*
G37*
G36*
X268623Y495246D02*
X265989D01*
X263446Y494565D01*
X261166Y493248D01*
X259304Y491386D01*
X257987Y489106D01*
X257306Y486562D01*
Y483929D01*
X257987Y481386D01*
X259304Y479106D01*
X261166Y477244D01*
X263446Y475928D01*
X264394Y475674D01*
Y474746D01*
X264665Y473380D01*
X265439Y472223D01*
X266642Y471019D01*
X266156Y469846D01*
X265989D01*
X263446Y469165D01*
X261166Y467848D01*
X259304Y465986D01*
X257987Y463706D01*
X257306Y461162D01*
Y458530D01*
X257987Y455986D01*
X257999Y455966D01*
X132079Y330046D01*
X130751D01*
X128914Y329285D01*
X127507Y327878D01*
X126746Y326040D01*
Y324051D01*
X127507Y322214D01*
X128914Y320807D01*
X130751Y320046D01*
X132741D01*
X134578Y320807D01*
X135985Y322214D01*
X136746Y324051D01*
Y324619D01*
X262944Y450817D01*
X263446Y450527D01*
X265989Y449846D01*
X268623D01*
X271166Y450527D01*
X273446Y451844D01*
X273564Y451962D01*
X274737Y451476D01*
Y442816D01*
X273564Y442330D01*
X273446Y442448D01*
X271166Y443764D01*
X268623Y444446D01*
X265989D01*
X263446Y443764D01*
X261166Y442448D01*
X259304Y440586D01*
X257987Y438306D01*
X257306Y435762D01*
Y433130D01*
X257987Y430586D01*
X259304Y428306D01*
X261166Y426444D01*
X263446Y425127D01*
X265989Y424446D01*
X266156D01*
X266642Y423273D01*
X237939Y394569D01*
X170223Y326853D01*
X169449Y325695D01*
X169177Y324330D01*
Y307549D01*
X168507Y306878D01*
X167746Y305041D01*
Y303051D01*
X168507Y301214D01*
X169914Y299807D01*
X171751Y299046D01*
X173741D01*
X175578Y299807D01*
X176985Y301214D01*
X177746Y303051D01*
Y305041D01*
X176985Y306878D01*
X176315Y307549D01*
Y322851D01*
X241940Y388477D01*
X264426D01*
X265791Y388749D01*
X266882Y389477D01*
X307243D01*
X307914Y388807D01*
X309751Y388046D01*
X311741D01*
X313578Y388807D01*
X314985Y390214D01*
X315746Y392051D01*
Y394041D01*
X314985Y395878D01*
X313578Y397285D01*
X311741Y398046D01*
X309751D01*
X307914Y397285D01*
X307243Y396615D01*
X265426D01*
X264060Y396343D01*
X262970Y395615D01*
X250737D01*
X250251Y396788D01*
X280829Y427366D01*
X281603Y428524D01*
X281875Y429890D01*
Y464402D01*
X281603Y465768D01*
X280829Y466926D01*
X272323Y475432D01*
X272489Y476691D01*
X273446Y477244D01*
X275308Y479106D01*
X276625Y481386D01*
X277306Y483929D01*
Y486562D01*
X276625Y489106D01*
X275308Y491386D01*
X273446Y493248D01*
X271166Y494565D01*
X268623Y495246D01*
D02*
G37*
G36*
X571063Y457046D02*
X568429D01*
X565886Y456365D01*
X563606Y455048D01*
X561744Y453186D01*
X560428Y450906D01*
X559746Y448363D01*
Y445729D01*
X560428Y443186D01*
X561744Y440906D01*
X563606Y439044D01*
X565886Y437728D01*
X568429Y437046D01*
X571063D01*
X573606Y437728D01*
X575886Y439044D01*
X577748Y440906D01*
X579064Y443186D01*
X579746Y445729D01*
Y448363D01*
X579064Y450906D01*
X577748Y453186D01*
X575886Y455048D01*
X573606Y456365D01*
X571063Y457046D01*
D02*
G37*
G36*
X494868Y431686D02*
X494816D01*
Y422916D01*
X503586D01*
Y422968D01*
X502902Y425521D01*
X501580Y427811D01*
X499711Y429680D01*
X497421Y431002D01*
X494868Y431686D01*
D02*
G37*
G36*
X492276D02*
X492224D01*
X489671Y431002D01*
X487381Y429680D01*
X485512Y427811D01*
X484190Y425521D01*
X483506Y422968D01*
Y422916D01*
X492276D01*
Y431686D01*
D02*
G37*
G36*
X740741Y402046D02*
X738752D01*
X736914Y401285D01*
X736753Y401124D01*
X619746D01*
X619746Y401124D01*
X618185Y400814D01*
X616862Y399930D01*
X572750Y355817D01*
X570964Y356296D01*
X568528D01*
X566176Y355666D01*
X564066Y354448D01*
X562344Y352726D01*
X561126Y350616D01*
X560496Y348264D01*
Y345828D01*
X561126Y343476D01*
X562344Y341366D01*
X564066Y339644D01*
X566176Y338426D01*
X568528Y337796D01*
X570964D01*
X573316Y338426D01*
X575426Y339644D01*
X577148Y341366D01*
X578366Y343476D01*
X578996Y345828D01*
Y348264D01*
X578517Y350050D01*
X621435Y392968D01*
X736753D01*
X736914Y392807D01*
X738752Y392046D01*
X740741D01*
X742578Y392807D01*
X743985Y394214D01*
X744746Y396051D01*
Y398041D01*
X743985Y399878D01*
X742578Y401285D01*
X740741Y402046D01*
D02*
G37*
G36*
X344823Y495246D02*
X342189D01*
X339646Y494565D01*
X337366Y493248D01*
X335504Y491386D01*
X334188Y489106D01*
X333506Y486562D01*
Y483929D01*
X334188Y481386D01*
X335504Y479106D01*
X337366Y477244D01*
X339646Y475928D01*
X342189Y475246D01*
X344823D01*
X347366Y475928D01*
X349646Y477244D01*
X351508Y479106D01*
X352825Y481386D01*
X352903Y481677D01*
X389068D01*
X392177Y478568D01*
Y394394D01*
X391914Y394285D01*
X390507Y392878D01*
X389746Y391041D01*
Y389051D01*
X390507Y387214D01*
X391914Y385807D01*
X393751Y385046D01*
X395741D01*
X397578Y385807D01*
X398985Y387214D01*
X399746Y389051D01*
Y391041D01*
X399315Y392082D01*
Y480046D01*
X399043Y481412D01*
X398269Y482569D01*
X393069Y487769D01*
X391912Y488543D01*
X390546Y488815D01*
X352903D01*
X352825Y489106D01*
X351508Y491386D01*
X349646Y493248D01*
X347366Y494565D01*
X344823Y495246D01*
D02*
G37*
G36*
X238741Y379046D02*
X236751D01*
X234914Y378285D01*
X233507Y376878D01*
X232746Y375041D01*
Y373051D01*
X233507Y371214D01*
X234914Y369807D01*
X236751Y369046D01*
X238741D01*
X240578Y369807D01*
X241248Y370477D01*
X255768D01*
X259246Y366999D01*
Y365115D01*
X229246D01*
X227880Y364843D01*
X226723Y364069D01*
X206041Y343387D01*
X205267Y342230D01*
X204995Y340864D01*
Y307228D01*
X205267Y305862D01*
X206041Y304705D01*
X380223Y130523D01*
X381380Y129749D01*
X382746Y129477D01*
X452243D01*
X452914Y128807D01*
X454752Y128046D01*
X456741D01*
X458578Y128807D01*
X459985Y130214D01*
X460746Y132051D01*
Y134040D01*
X459985Y135878D01*
X458578Y137285D01*
X456741Y138046D01*
X454752D01*
X452914Y137285D01*
X452243Y136615D01*
X384224D01*
X212133Y308706D01*
Y339386D01*
X230724Y357977D01*
X259246D01*
Y351046D01*
X280246D01*
Y355477D01*
X299244D01*
X299914Y354807D01*
X301751Y354046D01*
X303741D01*
X305578Y354807D01*
X306985Y356214D01*
X307746Y358051D01*
Y360041D01*
X306985Y361878D01*
X305578Y363285D01*
X303741Y364046D01*
X301751D01*
X299914Y363285D01*
X299244Y362615D01*
X280246D01*
Y372046D01*
X264293D01*
X259769Y376569D01*
X258612Y377343D01*
X257246Y377615D01*
X241248D01*
X240578Y378285D01*
X238741Y379046D01*
D02*
G37*
G36*
X344823Y469846D02*
X342189D01*
X339646Y469165D01*
X337366Y467848D01*
X335504Y465986D01*
X334188Y463706D01*
X333506Y461162D01*
Y458530D01*
X334188Y455986D01*
X335504Y453706D01*
X337366Y451844D01*
X339646Y450527D01*
X342189Y449846D01*
X344823D01*
X347366Y450527D01*
X347627Y450678D01*
X366177Y432128D01*
Y355546D01*
X361246D01*
Y338546D01*
X378246D01*
Y355546D01*
X373315D01*
Y433606D01*
X373043Y434972D01*
X372269Y436129D01*
X352674Y455725D01*
X352825Y455986D01*
X353506Y458530D01*
Y461162D01*
X352825Y463706D01*
X351508Y465986D01*
X349646Y467848D01*
X347366Y469165D01*
X344823Y469846D01*
D02*
G37*
G36*
X266246Y343046D02*
X250246D01*
Y336615D01*
X242248D01*
X241578Y337285D01*
X239741Y338046D01*
X237752D01*
X235914Y337285D01*
X234507Y335878D01*
X233746Y334041D01*
Y332051D01*
X234507Y330214D01*
X235914Y328807D01*
X237752Y328046D01*
X239741D01*
X241578Y328807D01*
X242248Y329477D01*
X250246D01*
Y322046D01*
X266246D01*
Y343046D01*
D02*
G37*
G36*
X289246D02*
X273246D01*
Y322046D01*
X278177D01*
Y307549D01*
X277507Y306878D01*
X276746Y305041D01*
Y303051D01*
X277507Y301214D01*
X278914Y299807D01*
X280751Y299046D01*
X282741D01*
X284578Y299807D01*
X285985Y301214D01*
X286746Y303051D01*
Y305041D01*
X285985Y306878D01*
X285315Y307549D01*
Y322046D01*
X289246D01*
Y343046D01*
D02*
G37*
G36*
X371016Y305547D02*
Y298316D01*
X378247D01*
X377704Y300342D01*
X376580Y302290D01*
X374990Y303880D01*
X373042Y305004D01*
X371016Y305547D01*
D02*
G37*
G36*
X368476D02*
X366450Y305004D01*
X364502Y303880D01*
X362912Y302290D01*
X361788Y300342D01*
X361245Y298316D01*
X368476D01*
Y305547D01*
D02*
G37*
G36*
X620016Y256323D02*
Y248316D01*
X628023D01*
X627403Y250632D01*
X626180Y252750D01*
X624450Y254480D01*
X622332Y255703D01*
X620016Y256323D01*
D02*
G37*
G36*
X617476Y256323D02*
X615160Y255703D01*
X613042Y254480D01*
X611312Y252750D01*
X610089Y250632D01*
X609469Y248316D01*
X617476D01*
Y256323D01*
D02*
G37*
G36*
X344823Y444446D02*
X342189D01*
X339646Y443764D01*
X337366Y442448D01*
X335504Y440586D01*
X334188Y438306D01*
X333506Y435762D01*
Y433130D01*
X334188Y430586D01*
X335504Y428306D01*
X337366Y426444D01*
X339646Y425127D01*
X341177Y424717D01*
Y406524D01*
X317223Y382569D01*
X316449Y381412D01*
X316177Y380046D01*
Y255546D01*
X311246D01*
Y238546D01*
X328246D01*
Y255546D01*
X323315D01*
Y378568D01*
X347269Y402523D01*
X348043Y403680D01*
X348315Y405046D01*
Y425675D01*
X349646Y426444D01*
X351508Y428306D01*
X352825Y430586D01*
X353506Y433130D01*
Y435762D01*
X352825Y438306D01*
X351508Y440586D01*
X349646Y442448D01*
X347366Y443764D01*
X344823Y444446D01*
D02*
G37*
G36*
X521964Y256296D02*
X519528D01*
X517176Y255666D01*
X515066Y254448D01*
X513344Y252726D01*
X512126Y250616D01*
X511496Y248264D01*
Y245828D01*
X512126Y243476D01*
X513344Y241366D01*
X515066Y239644D01*
X517176Y238426D01*
X519528Y237796D01*
X521964D01*
X524316Y238426D01*
X526426Y239644D01*
X528148Y241366D01*
X529366Y243476D01*
X529996Y245828D01*
Y248264D01*
X529366Y250616D01*
X528148Y252726D01*
X526426Y254448D01*
X524316Y255666D01*
X521964Y256296D01*
D02*
G37*
G36*
X488996Y356296D02*
X470496D01*
Y342843D01*
X453223Y325569D01*
X452449Y324412D01*
X452178Y323046D01*
Y234548D01*
X451507Y233878D01*
X450746Y232041D01*
Y230051D01*
X451507Y228214D01*
X452914Y226807D01*
X454752Y226046D01*
X456741D01*
X458578Y226807D01*
X459985Y228214D01*
X460746Y230051D01*
Y232041D01*
X459985Y233878D01*
X459315Y234548D01*
Y321568D01*
X475543Y337796D01*
X488996D01*
Y356296D01*
D02*
G37*
G36*
X503586Y420376D02*
X483506D01*
Y420324D01*
X484190Y417771D01*
X485512Y415481D01*
X487381Y413612D01*
X489468Y412407D01*
Y397535D01*
X422862Y330930D01*
X421978Y329607D01*
X421668Y328046D01*
X421668Y328046D01*
Y225124D01*
X402435D01*
X393824Y233735D01*
Y277046D01*
X393514Y278607D01*
X392630Y279930D01*
X392630Y279930D01*
X377938Y294622D01*
X378247Y295776D01*
X369746D01*
Y297046D01*
D01*
Y295776D01*
X361245D01*
X361788Y293750D01*
X362912Y291802D01*
X364502Y290212D01*
X366177Y289245D01*
Y254847D01*
X364502Y253880D01*
X362912Y252290D01*
X361788Y250342D01*
X361245Y248316D01*
X378247D01*
X377704Y250342D01*
X376580Y252290D01*
X374990Y253880D01*
X373315Y254847D01*
Y286050D01*
X374488Y286536D01*
X385668Y275357D01*
Y232046D01*
X385668Y232046D01*
X385978Y230485D01*
X386862Y229162D01*
X397862Y218162D01*
X399185Y217278D01*
X400746Y216968D01*
X400746Y216968D01*
X423988D01*
X423989Y216968D01*
X425549Y217278D01*
X426872Y218162D01*
X428630Y219919D01*
X428630Y219919D01*
X429514Y221243D01*
X429824Y222803D01*
X429824Y222803D01*
Y326357D01*
X496430Y392962D01*
X497314Y394285D01*
X497624Y395846D01*
X497624Y395846D01*
Y412407D01*
X499711Y413612D01*
X501580Y415481D01*
X502902Y417771D01*
X503586Y420324D01*
Y420376D01*
D02*
G37*
G36*
X628023Y245776D02*
X618746D01*
X609469D01*
X610089Y243460D01*
X611312Y241342D01*
X613042Y239612D01*
X615160Y238389D01*
X615177Y238384D01*
Y230524D01*
X598268Y213615D01*
X393224D01*
X373315Y233524D01*
Y239245D01*
X374990Y240212D01*
X376580Y241802D01*
X377704Y243750D01*
X378247Y245776D01*
X361245D01*
X361788Y243750D01*
X362912Y241802D01*
X364502Y240212D01*
X366177Y239245D01*
Y232046D01*
X366449Y230680D01*
X367223Y229523D01*
X389223Y207523D01*
X390380Y206749D01*
X391746Y206477D01*
X599746D01*
X601112Y206749D01*
X602269Y207523D01*
X621269Y226523D01*
X622043Y227680D01*
X622315Y229046D01*
Y238384D01*
X622332Y238389D01*
X624450Y239612D01*
X626180Y241342D01*
X627403Y243460D01*
X628023Y245776D01*
D02*
G37*
G36*
X673741Y158046D02*
X671751D01*
X669914Y157285D01*
X669243Y156615D01*
X383248D01*
X382578Y157285D01*
X380741Y158046D01*
X378751D01*
X376914Y157285D01*
X375507Y155878D01*
X374746Y154041D01*
Y152051D01*
X375507Y150214D01*
X376914Y148807D01*
X378751Y148046D01*
X380741D01*
X382578Y148807D01*
X383248Y149477D01*
X669243D01*
X669914Y148807D01*
X671751Y148046D01*
X673741D01*
X675578Y148807D01*
X676985Y150214D01*
X677746Y152051D01*
Y154041D01*
X676985Y155878D01*
X675578Y157285D01*
X673741Y158046D01*
D02*
G37*
%LPD*%
D12*
X369746Y347046D02*
Y433606D01*
X343506Y459846D02*
X369746Y433606D01*
X824048Y320620D02*
X827278Y323850D01*
X812800Y320620D02*
X824048D01*
X827278Y323850D02*
Y447656D01*
X814570Y459414D02*
X817570Y456414D01*
X818520D01*
X827278Y447656D01*
X814070Y459414D02*
X814570D01*
X742746Y47046D02*
X810800Y115100D01*
X812300Y320620D02*
X812800D01*
X810800Y319120D02*
X812300Y320620D01*
X810800Y115100D02*
Y319120D01*
X610746Y165046D02*
X775320Y329620D01*
X812800D01*
X669746Y547046D02*
X725938D01*
X813570Y459414D01*
X814070D01*
X794186Y450414D02*
X814070D01*
X784860Y459740D02*
X794186Y450414D01*
X712301Y459414D02*
X784534D01*
X784860Y459740D01*
X674533Y421646D02*
X712301Y459414D01*
X570546Y420846D02*
X571346Y421646D01*
X674533D01*
X569746D02*
X570546Y420846D01*
X267306Y485246D02*
X267962Y484590D01*
Y474746D02*
X278306Y464402D01*
X267962Y474746D02*
Y484590D01*
X414746Y232046D02*
Y475046D01*
X165296Y250046D02*
X166246D01*
X278306Y429890D02*
Y464402D01*
X69746Y345596D02*
X165296Y250046D01*
X166246D02*
X169246Y247046D01*
X169746D02*
X170246D01*
X169246D02*
X169746D01*
X437546Y497846D02*
X493546D01*
X414746Y475046D02*
X437546Y497846D01*
X438946Y472246D02*
X493346D01*
X438746Y472046D02*
X438946Y472246D01*
X169746Y256046D02*
X197803D01*
X199803Y254046D01*
X228746D01*
X208564Y307228D02*
X382746Y133046D01*
X455746D01*
X423746Y388046D02*
X482746Y447046D01*
X493546D01*
X208564Y307228D02*
Y340864D01*
X269246Y147046D02*
X269746D01*
X171746Y243596D02*
X265296Y150046D01*
X266246D02*
X269246Y147046D01*
X171746Y243596D02*
Y245546D01*
X170246Y247046D02*
X171746Y245546D01*
X265296Y150046D02*
X266246D01*
X319746Y247046D02*
Y380046D01*
X369746Y247046D02*
Y297046D01*
X455746Y231046D02*
Y323046D01*
X479746Y347046D01*
X656574Y322218D02*
Y323874D01*
X656746Y324046D01*
X656574Y322218D02*
X657746Y321046D01*
Y256046D02*
Y321046D01*
X596746Y195046D02*
X657746Y256046D01*
X393746Y195046D02*
X596746D01*
X599746Y210046D02*
X618746Y229046D01*
X391746Y210046D02*
X599746D01*
X618746Y229046D02*
Y247046D01*
X442746Y165046D02*
X610746D01*
X379746Y153046D02*
X672746D01*
X556209Y142009D02*
X679709D01*
X764746Y227046D01*
X470246Y56046D02*
X556209Y142009D01*
X436746Y171046D02*
Y187046D01*
Y171046D02*
X442746Y165046D01*
X319746Y380046D02*
X344746Y405046D01*
X132126Y325046D02*
X266926Y459846D01*
X131746Y325046D02*
X132126D01*
X266926Y459846D02*
X267306D01*
X294746Y156046D02*
X298746Y152046D01*
X269746Y156046D02*
X294746D01*
X493346Y472246D02*
X493546Y472446D01*
X343506Y485246D02*
X390546D01*
X395746Y480046D01*
Y391046D02*
Y480046D01*
X394746Y390046D02*
X395746Y391046D01*
X469746Y756046D02*
X498746D01*
X469996Y746796D02*
X769496D01*
X586746Y652046D02*
X739746D01*
X469746Y56046D02*
X470246D01*
X257746Y333046D02*
X258246Y332546D01*
X238746Y333046D02*
X257746D01*
X264426Y392046D02*
X265426Y393046D01*
X310746D01*
X237746Y374046D02*
X257246D01*
X269746Y361546D01*
X172746Y324330D02*
X240462Y392046D01*
X264426D01*
X272246Y359046D02*
X302746D01*
X269746Y361546D02*
X272246Y359046D01*
X240462Y392046D02*
X278306Y429890D01*
X281746Y304046D02*
Y332046D01*
X281246Y332546D02*
X281746Y332046D01*
X172746Y304046D02*
Y324330D01*
X208564Y340864D02*
X229246Y361546D01*
X344746Y405046D02*
Y433206D01*
X343506Y434446D02*
X344746Y433206D01*
X229246Y361546D02*
X269746D01*
X369746Y232046D02*
X391746Y210046D01*
X669746Y35968D02*
X670918Y34796D01*
Y25218D02*
Y34796D01*
X360746Y24046D02*
X669746D01*
X669746Y35968D02*
Y47046D01*
X669746Y24046D02*
X670918Y25218D01*
X269746Y115046D02*
X360746Y24046D01*
X269746Y115046D02*
Y147046D01*
X669746Y56046D02*
X669746Y56046D01*
X634746Y56046D02*
X669746D01*
X69746Y456046D02*
X138746D01*
X248746Y566046D01*
X268746Y695046D02*
Y737046D01*
X269746Y738046D01*
X50746Y477046D02*
X268746Y695046D01*
X50746Y449046D02*
Y477046D01*
Y449046D02*
X52746Y447046D01*
X69746D01*
X235918Y747046D02*
X269746D01*
X232746Y743874D02*
X235918Y747046D01*
X232746Y714046D02*
Y743874D01*
X382746Y645046D02*
X453746Y574046D01*
X493546D01*
X369746Y232046D02*
Y247046D01*
X569746Y472446D02*
X608746Y511446D01*
X770672Y754620D02*
X788172D01*
X769746Y755546D02*
X770672Y754620D01*
X788172D02*
X788746Y754046D01*
X608746Y511446D02*
Y561046D01*
X769496Y746796D02*
X769746Y746546D01*
X469746Y747046D02*
X469996Y746796D01*
X269746Y738046D02*
X460246D01*
X469246Y747046D01*
X469746D01*
X69746Y345596D02*
Y447046D01*
X370246Y47046D02*
X469746D01*
X270246Y147046D02*
X370246Y47046D01*
X269746Y147046D02*
X270246D01*
X669746Y47046D02*
X742746D01*
D14*
X814070Y450414D02*
D03*
Y459414D02*
D03*
X469746Y756046D02*
D03*
Y747046D02*
D03*
X269746D02*
D03*
Y738046D02*
D03*
X69746Y456046D02*
D03*
Y447046D02*
D03*
X169746Y256046D02*
D03*
Y247046D02*
D03*
X269746Y156046D02*
D03*
Y147046D02*
D03*
X469746Y56046D02*
D03*
Y47046D02*
D03*
X812800Y329620D02*
D03*
Y320620D02*
D03*
X669746Y56046D02*
D03*
Y47046D02*
D03*
X769746Y755546D02*
D03*
Y746546D02*
D03*
D15*
X269746Y361546D02*
D03*
D16*
X281246Y332546D02*
D03*
X258246D02*
D03*
D19*
X369746Y247046D02*
D03*
Y297046D02*
D03*
D20*
X319746Y247046D02*
D03*
D21*
X369746Y347046D02*
D03*
D24*
X298046Y637046D02*
D03*
D25*
X323446D02*
D03*
D29*
X389746Y232046D02*
Y277046D01*
X369746Y297046D02*
X389746Y277046D01*
Y232046D02*
X400746Y221046D01*
X425746Y222803D02*
Y328046D01*
X423989Y221046D02*
X425746Y222803D01*
X400746Y221046D02*
X423989D01*
X425746Y328046D02*
X493546Y395846D01*
Y421646D01*
X569746Y347046D02*
X619746Y397046D01*
X739746D01*
X457363Y515429D02*
X458363D01*
X388746Y584046D02*
X457363Y515429D01*
X458363D02*
X458746Y515046D01*
X569746Y599446D02*
X570046Y599746D01*
X739446D01*
X739746Y600046D01*
X621746Y505046D02*
Y572289D01*
Y505046D02*
X669746Y457046D01*
X558746Y666046D02*
X569746Y655046D01*
X352446Y666046D02*
X558746D01*
X323446Y637046D02*
X352446Y666046D01*
X569746Y599446D02*
Y655046D01*
X323446Y637046D02*
X359446Y601046D01*
Y526586D02*
Y601046D01*
X343506Y510646D02*
X359446Y526586D01*
X267306Y510646D02*
Y606306D01*
X298046Y637046D01*
X569746Y574046D02*
X619989D01*
X621746Y572289D01*
D30*
X479746Y347046D02*
D03*
D31*
X569746D02*
D03*
X520746Y247046D02*
D03*
X618746D02*
D03*
X669746Y547046D02*
D03*
D32*
X569746Y421646D02*
D03*
Y447046D02*
D03*
Y472446D02*
D03*
Y497846D02*
D03*
Y523246D02*
D03*
Y548646D02*
D03*
Y574046D02*
D03*
Y599446D02*
D03*
X493546Y421646D02*
D03*
Y447046D02*
D03*
Y472446D02*
D03*
Y497846D02*
D03*
Y523246D02*
D03*
Y548646D02*
D03*
Y574046D02*
D03*
X267306Y485246D02*
D03*
Y459846D02*
D03*
Y434446D02*
D03*
X343506Y510646D02*
D03*
Y485246D02*
D03*
Y459846D02*
D03*
Y434446D02*
D03*
D33*
X493546Y599446D02*
D03*
X267306Y510646D02*
D03*
D34*
X669746Y457046D02*
D03*
D35*
X228746Y254046D02*
D03*
X423746Y388046D02*
D03*
X656746Y324046D02*
D03*
X393746Y195046D02*
D03*
X131746Y325046D02*
D03*
X298746Y152046D02*
D03*
X379746Y153046D02*
D03*
X672746D02*
D03*
X458746Y515046D02*
D03*
X388746Y584046D02*
D03*
X739746Y600046D02*
D03*
Y397046D02*
D03*
X498746Y756046D02*
D03*
X586746Y652046D02*
D03*
X739746D02*
D03*
X764746Y227046D02*
D03*
X238746Y333046D02*
D03*
X237746Y374046D02*
D03*
X302746Y359046D02*
D03*
X394746Y390046D02*
D03*
X281746Y304046D02*
D03*
X172746D02*
D03*
X310746Y393046D02*
D03*
X455746Y133046D02*
D03*
Y231046D02*
D03*
X634746Y56046D02*
D03*
X414746Y232046D02*
D03*
X248746Y566046D02*
D03*
X232746Y714046D02*
D03*
X382746Y645046D02*
D03*
X438746Y472046D02*
D03*
X436746Y187046D02*
D03*
X788746Y754046D02*
D03*
X608746Y561046D02*
D03*
M02*
