G04*
G04 #@! TF.GenerationSoftware,Altium Limited,Altium Designer,23.11.1 (41)*
G04*
G04 Layer_Color=16711935*
%FSLAX44Y44*%
%MOMM*%
G71*
G04*
G04 #@! TF.SameCoordinates,6762E12D-089E-49D2-B3B2-2041342F93EC*
G04*
G04*
G04 #@! TF.FilePolarity,Negative*
G04*
G01*
G75*
%ADD19C,1.2000*%
%ADD20R,1.2000X1.2000*%
%ADD21R,1.2000X1.2000*%
%ADD22R,1.5532X1.5532*%
%ADD23C,1.5532*%
%ADD24C,1.5700*%
%ADD25R,1.5700X1.5700*%
%ADD26C,1.7032*%
%ADD27R,1.7032X1.7032*%
%ADD28R,1.5532X1.5532*%
D19*
X369746Y247046D02*
D03*
Y297046D02*
D03*
D20*
X319746Y247046D02*
D03*
D21*
X369746Y347046D02*
D03*
D22*
X479746D02*
D03*
D23*
X569746D02*
D03*
X520746Y247046D02*
D03*
X618746D02*
D03*
X669746Y547046D02*
D03*
D24*
X298046Y637046D02*
D03*
D25*
X323446D02*
D03*
D26*
X569746Y421646D02*
D03*
Y447046D02*
D03*
Y472446D02*
D03*
Y497846D02*
D03*
Y523246D02*
D03*
Y548646D02*
D03*
Y574046D02*
D03*
Y599446D02*
D03*
X493546Y421646D02*
D03*
Y447046D02*
D03*
Y472446D02*
D03*
Y497846D02*
D03*
Y523246D02*
D03*
Y548646D02*
D03*
Y574046D02*
D03*
X267306Y485246D02*
D03*
Y459846D02*
D03*
Y434446D02*
D03*
X343506Y510646D02*
D03*
Y485246D02*
D03*
Y459846D02*
D03*
Y434446D02*
D03*
D27*
X493546Y599446D02*
D03*
X267306Y510646D02*
D03*
D28*
X669746Y457046D02*
D03*
M02*
