M48
;Layer_Color=9474304
;FILE_FORMAT=4:4
METRIC,LZ
;TYPE=PLATED
T01F00S00C0.4000
T02F00S00C0.7000
T03F00S00C0.8500
T04F00S00C0.9000
T05F00S00C1.0200
%
T01
X00672746Y00153046
X00764746Y00227046
X00739746Y00397046
X00656746Y00324046
X00634746Y00056046
X00455746Y00133046
X00436746Y00187046
X00393746Y00195046
X00379746Y00153046
X00298746Y00152046
X00281746Y00304046
X00302746Y00359046
X00310746Y00393046
X00394746Y00390046
X00423746Y00388046
X00414746Y00232046
X00455746Y00231046
X00228746Y00254046
X00238746Y00333046
X00237746Y00374046
X00172746Y00304046
X00131746Y00325046
X00248746Y00566046
X00232746Y00714046
X00382746Y00645046
X00388746Y00584046
X00458746Y00515046
X00438746Y00472046
X00608746Y00561046
X00586746Y00652046
X00498746Y00756046
X00788746Y00754046
X00739746Y00652046
Y00600046
T02
X00319746Y00247046
X00369746
Y00297046
Y00347046
T03
X00520746Y00247046
X00618746
X00569746Y00347046
X00479746
X00669746Y00457046
Y00547046
T04
X00267306Y00434446
X00343506
X00493546Y00421646
X00569746
Y00447046
Y00472446
Y00497846
Y00523246
Y00548646
Y00574046
Y00599446
X00493546
Y00574046
Y00548646
Y00523246
Y00497846
Y00472446
Y00447046
X00343506Y00459846
Y00485246
Y00510646
X00267306
Y00485246
Y00459846
T05
X00298046Y00637046
X00323446
M30
